<svg width="3995" height="970" fill="none" xmlns="http://www.w3.org/2000/svg"><path d="M2954 455.963c-91.5-195.883-301.3-516.633-408.5-232.575C2438.3 507.446 2007.83 614.154 1806 632" stroke="#EDEDED" stroke-width="4" stroke-dasharray="30 20"/><path d="M1836.71 510.65l28.62 16.132-28.95 16.714.33-32.846zm-731.45-299.549l33.42 63.577-73.01-3.639 39.59-59.938zm2002-39l33.42 63.577-73.01-3.639 39.59-59.938zm671.46 33.55l40.66 3.076-23.75 34.037-16.91-37.113zM1624 111.03l8.046-30.03 30.03 8.047-8.046 30.03zM385 215.296L395.261 177l38.296 10.261-10.26 38.296zm481.016 281.653l19.227-23.28 23.28 19.228-19.228 23.28zm1846.714-90.677l-36.956-21.337 21.337-36.955 36.956 21.336zm856.57 81.096l-31.298-18.07 18.07-31.298 31.298 18.07z" fill="#EDEDED"/><path d="M1517 4.5c-115.17 28.333-296.7 134.2-101.5 331s-100.33 280-272.5 297M21.776 2C3.056 249.822 70.45 703.496 489.793 535.617 909.137 367.737 840.346 109.922 753.533 2M2954 456c22.42 52.759 80.4 162.222 133 178m257.28 1c-95.29-192.81-162.52-524.259 330.86-307.571C4168.52 544.118 3952.01 200.763 3782.09 2" stroke="#EDEDED" stroke-width="4" stroke-dasharray="30 20"/><path d="M225.186 762.149l-10.877 82.018-67.195-54.633 78.072-27.385zm2120.204 11.86l-20.73 80.097-60.09-62.369 80.82-17.728zM2866 883.388L2907.69 863l20.388 41.69-41.69 20.388zM1268 759.857l41.69-20.388 20.388 41.69-41.69 20.388z" fill="#EDEDED"/><path d="M1128 637c-109.09 7.988-312.92 12.481-362.355 62.406C730.646 734.752 689.021 862.66 750.32 969M1788 638.5c-47.5 7.167-144 38.3-150 105.5-7.5 84 12 197.5-96.5 224M3099 640c142.28 141.115 391.1 338.675 248.16 0m428.34 326.5C3673 859.667 3573.3 664 3994.5 736M22 967c5-95.5 7.8-283.4-21-271" stroke="#EDEDED" stroke-width="4" stroke-dasharray="30 20"/></svg>