<svg width="3801" height="385" fill="none" xmlns="http://www.w3.org/2000/svg"><path d="M943 303c127.84-8.348 394.82-78.434 440-292m879.14 353c-32.72-77.772-53.89-243.149 123.19-282.477C2606.69 32.363 2490 326.544 2796 364" stroke="#184064" stroke-width="4" stroke-dasharray="30 20"/><path fill="#184064" d="M2643 129.624l35.72-20.623 20.624 35.72-35.72 20.624zm957.36 170.167l18.49-21.693 21.692 18.49-18.49 21.692zM1168.26 102l34.551 9.258-9.258 34.551-34.551-9.258zM9.258 238l34.551 9.258-9.258 34.551L0 272.551zm1739.512 43.373l1.72 25.056-22.56-11.039 20.84-14.017zM3776.63 83.53l3.11 45.333-40.82-19.971 37.71-25.361zm-711.24 142.853l2.66 38.811-34.94-17.098 32.28-21.713zM786.233 187.197l2.752 40.088-36.094-17.661 33.342-22.427z"/><path d="M944.5 303C720.667 326.833 229 300 53 2m2741.5 362C3005.17 409.667 3406 401.6 3324 4" stroke="#184064" stroke-width="4" stroke-dasharray="30 20"/></svg>