<svg width="3831" height="834" fill="none" xmlns="http://www.w3.org/2000/svg"><path d="M2289.5 389.5c64.33 107.667 257.3 301.6 514.5 216 321.5-107 513.5 133.5 530 209M66.923 832C-17.793 719.289-86.671 506.091 315.546 554.982 818.317 616.096 1436.11 265.441 1399.44 832" stroke="#184064" stroke-width="4" stroke-dasharray="30 20"/><path fill="#184064" d="M2022.23 557.562l26.973 7.227-7.228 26.973-26.972-7.227zM3802 502.381l27.921-.382.382 27.922-27.921.381zm-2256.06 93.226l29.98 20.868-33.06 15.532 3.08-36.4zm1855.54.931l20.84 16.919-25.07 9.593 4.23-26.512z"/><path d="M958 303c127.84-8.348 394.82-78.434 440-292m879.14 353c-32.72-77.772-53.89-243.149 123.19-282.477C2621.69 32.363 2505 326.544 2811 364" stroke="#184064" stroke-width="4" stroke-dasharray="30 20"/><path fill="#184064" d="M2658 129.624l35.72-20.623 20.624 35.72-35.72 20.624zm957.36 170.167l18.49-21.693 21.692 18.49-18.49 21.692zM1183.26 102l34.551 9.258-9.258 34.551-34.551-9.258zM24.258 238l34.551 9.258-9.258 34.551L15 272.551zm1739.512 43.373l1.72 25.056-22.56-11.039 20.84-14.017zM3791.63 83.53l3.11 45.333-40.82-19.971 37.71-25.361zm-711.24 142.853l2.66 38.811-34.94-17.098 32.28-21.713zM801.233 187.197l2.752 40.088-36.094-17.661 33.342-22.427z"/><path d="M959.5 303C735.667 326.833 244 300 68 2m2741.5 362C3020.17 409.667 3421 401.6 3339 4" stroke="#184064" stroke-width="4" stroke-dasharray="30 20"/></svg>