<svg width="1915" height="750" fill="none" xmlns="http://www.w3.org/2000/svg"><path d="M1755.44 101.818l-6.66 85.117-71.12-49.915 77.78-35.202zM943.493 618.872l46.678 26.315-47.227 27.267.549-53.582zm-752.11-359.557l69.132 38.974-69.945 40.383.813-79.357zM1665 539.685L1696.12 518l21.685 31.12-31.12 21.685zm-656.41-399.322l22.389-38.778 38.778 22.388-22.389 38.779zM277 518.03l8.046-30.03 30.03 8.047-8.046 30.03z" fill="#5196D7"/><path d="M0 356c81.075 135.833 318.625 372.3 620.225 231.5C921.824 446.7 861.633 631.167 793.837 741M1914 2.5c-158.5-2.667-419.1 48-193.5 272 225.6 224 2.67 409-137 473.5" stroke="#5196D7" stroke-width="4" stroke-dasharray="30 20"/></svg>