<svg width="3804" height="621" fill="none" xmlns="http://www.w3.org/2000/svg"><path d="M2770.94 81.893l-3.22 41.036-34.28-24.065 37.5-16.97zm1007.22 339.735l-.71 51.08-44.38-27.069 45.09-24.011zm-1838.47 95.47l38.84 21.896-39.3 22.688.46-44.584zm-650.6-497.963l8.23 51.166-49.08-19.287 40.85-31.879zm-734.996 162l8.229 51.166-49.087-19.287 40.858-31.879zm-504 260l8.23 51.166-49.088-19.287 40.858-31.879zM2586 451.685L2617.12 430l21.685 31.12-31.12 21.685zM3388.41 144l34.033 30.412-30.412 34.032-34.033-30.411zm-381.23 183.039l27.473-3.331 3.33 27.473-27.472 3.33zM1928.61 91.328L1944.388 64l27.328 15.778-15.778 27.328zM1561 429.685l6.882-25.685 25.685 6.882-6.882 25.685zm-690-37.869L883.008 347l44.816 12.008-12.008 44.816zM39 73.685L45.882 48l25.685 6.882-6.882 25.685z" fill="#5196D7"/><path d="M1119 296c67.51 113.253 265.33 310.411 516.49 193.017 251.15-117.394 201.03 36.408 144.57 127.983M2856 2.081c-142.43-2.2-376.62 39.592-173.89 224.357 202.74 184.764 2.4 337.36-123.11 390.562" stroke="#5196D7" stroke-width="4" stroke-dasharray="30 20"/><path d="M2856 2.52c123.17-5.125 350 25.52 272 189.094-78 163.575 120.83 353.08 230 427.386" stroke="#5196D7" stroke-width="4" stroke-dasharray="30.2 30.2"/><path d="M1120 297.968C1053.6 198.791 849.919 5.438 566.424 25.44 282.929 45.442 176.685 427.48 159 616" stroke="#5196D7" stroke-width="4" stroke-dasharray="30 20"/></svg>