<svg width="4000" height="837" fill="none" xmlns="http://www.w3.org/2000/svg"><path d="M2052 835c139.73-34.987 391.54-153.61 280.96-348.21-138.23-243.249-60.34-384.026 97.25-372.087 157.59 11.939 397.12 33.826 526.79 260.162M1317 832.5c-92.67-37.333-240.6-146.8-91-286 187-174 558-325-18.5-540.5" stroke="#EFEFEF" stroke-width="4" stroke-dasharray="30 20"/><path d="M1221.63 140.429l50.86 41.78-61.61 23.154 10.75-64.934zM334.456 266.111l36.306 53.951-64.876 4.466 28.57-58.417zM2512.33 701.782l2.22 47.367-44.35-25.603 42.13-21.764zm888.18-458.885l3.26 69.64-65.2-37.642 61.94-31.998zm-689.74 200.788l48.546-27.916 27.916 48.546-48.546 27.916zM3924 634.916L3972.546 607l27.916 48.546-48.546 27.916zm-2455.06 89.721L1520.478 695l29.637 51.539-51.538 29.636zM783 558.636l34.937-20.09 20.09 34.937-34.937 20.09zm-783-.545l34.937-20.09 20.09 34.937-34.937 20.09z" fill="#F3F3F3"/><path d="M2957 374.5C3170.33 697 3633.6 1073.8 3780 1" stroke="#EFEFEF" stroke-width="4" stroke-dasharray="30 20"/><path d="M193 3c307.333 66.667 776.8 326.2 196 831" stroke="#F3F3F3" stroke-width="4" stroke-dasharray="30 20"/></svg>