<svg width="4000" height="1630" fill="none" xmlns="http://www.w3.org/2000/svg"><path d="M2052 835c139.73-34.987 391.54-153.61 280.96-348.21-138.23-243.249-60.34-384.026 97.25-372.087 157.59 11.939 397.12 33.826 526.79 260.162M1317 832.5c-92.67-37.333-240.6-146.8-91-286 187-174 558-325-18.5-540.5" stroke="#EDEDED" stroke-width="4" stroke-dasharray="30 20"/><path d="M1221.63 140.429l50.86 41.78-61.61 23.154 10.75-64.934zM334.456 266.111l36.306 53.951-64.876 4.466 28.57-58.417zM2512.33 701.782l2.22 47.367-44.35-25.603 42.13-21.764zm888.18-458.885l3.26 69.64-65.2-37.642 61.94-31.998zm-689.74 200.788l48.546-27.916 27.916 48.546-48.546 27.916zM3924 634.916L3972.546 607l27.916 48.546-48.546 27.916zm-2455.06 89.721L1520.478 695l29.637 51.539-51.538 29.636zM783 558.636l34.937-20.09 20.09 34.937-34.937 20.09zm-783-.545l34.937-20.09 20.09 34.937-34.937 20.09z" fill="#EDEDED"/><path d="M2957 374.5C3170.33 697 3633.6 1073.8 3780 1M193 3c307.333 66.667 776.8 326.2 196 831m-16.002 13c-80.5 73.167-180.5 240.5 63.5 324.5 305 105-237.001 222-263.498 228.5-108.658 26.65-148.5 192.5-6.5 224.5m1169.5-783c74 25 603.5 201.06 85.5 341-651.498 176-261.5 444.5-231.5 445M2024 844c-72.67 18-167.2 90.4 36 236 248.17 125.67 838.9 315.7 1216.5 70.5 472-306.5 538.5 302 506 462.5" stroke="#EDEDED" stroke-width="4" stroke-dasharray="30 20"/><path d="M1885.68 1362.63l22.87 83.53-83.77-21.96 60.9-61.57zm1005.52-315.62l53.17 29.71-52.31 31.19-.86-60.9zM185.593 1146.4l13.352 48.77-48.909-12.82 35.557-35.95zM3489 1289.69l40.712-16.69 16.69 40.712-40.712 16.69zm-2790 97l40.712-16.69 16.69 40.712-40.712 16.69z" fill="#EDEDED"/></svg>