<svg width="3800" height="800" fill="none" xmlns="http://www.w3.org/2000/svg"><path d="M2932 337c-132-101.833-454.91-80.682-572.5 37.5C2204.83 504 2006.4 769.6 2450 796" stroke="#5196D7" stroke-width="4" stroke-dasharray="30 20"/><path d="M2695.44 623.818l-6.66 85.117-71.12-49.915 77.78-35.202zm628.81-399.775l72.48 28.823-62.79 48.572-9.69-77.395zM2219.27 52.742l46.67 26.316-47.22 27.267.55-53.583zM1160.91 166.361l51.21 28.868-51.81 29.911.6-58.779zM0 558.148l69.077-40.831v81.662L0 558.148zm810.273-171.8l-2.71 80.197-68.856-43.905 71.566-36.292zM2605 144.686l31.12-21.685 21.685 31.12-31.12 21.685zm1142 528l31.12-21.685 21.685 31.12-31.12 21.685zm-2530 6.344l8.046-30.03 30.03 8.047-8.046 30.03zm-921-500l8.046-30.03 30.03 8.047-8.046 30.03z" fill="#5196D7"/><path d="M944 798c96.57-26.113 268.01-133.227 181.2-352.785-86.82-219.557-36.18-386.959 0-443.215" stroke="#5196D7" stroke-width="4" stroke-dasharray="30 20"/><path d="M2930 336c257.71 193.653 786.91 468.37 842 18.014" stroke="#5196D7" stroke-width="4" stroke-dasharray="30.2 30.2"/><path d="M58 798C331.007 696.077 781.178 394.584 397.806 4" stroke="#5196D7" stroke-width="4" stroke-dasharray="30 20"/><path d="M3771.41 357C3788.27 241.673 3797.39 9.616 3699 4" stroke="#5196D7" stroke-width="4" stroke-dasharray="30.2 30.2"/></svg>