<svg width="3831" height="834" viewBox="0 0 3831 834" fill="none" xmlns="http://www.w3.org/2000/svg">
<path d="M2289.5 389.5C2353.83 497.167 2546.8 691.1 2804 605.5C3125.5 498.5 3317.5 739 3334 814.5" stroke="#184064" stroke-width="4" stroke-dasharray="30 20"/>
<path d="M66.9229 832C-17.7932 719.289 -86.671 506.091 315.546 554.982C818.317 616.096 1436.11 265.441 1399.44 832" stroke="#184064" stroke-width="4" stroke-dasharray="30 20"/>
<rect x="2022.23" y="557.562" width="27.9245" height="27.9245" transform="rotate(15 2022.23 557.562)" fill="#184064"/>
<rect x="3802" y="502.381" width="27.9245" height="27.9245" transform="rotate(-0.782856 3802 502.381)" fill="#184064"/>
<path d="M1545.94 595.607L1575.92 616.475L1542.86 632.007L1545.94 595.607Z" fill="#184064"/>
<path d="M3401.48 596.538L3422.32 613.457L3397.25 623.05L3401.48 596.538Z" fill="#184064"/>
<path d="M958 303C1085.84 294.652 1352.82 224.566 1398 11" stroke="#184064" stroke-width="4" stroke-dasharray="30 20"/>
<path d="M2277.14 364C2244.42 286.228 2223.25 120.851 2400.33 81.523C2621.69 32.3627 2505 326.544 2811 364" stroke="#184064" stroke-width="4" stroke-dasharray="30 20"/>
<rect x="2658" y="129.624" width="41.2474" height="41.2474" transform="rotate(-30 2658 129.624)" fill="#184064"/>
<rect x="3615.36" y="299.791" width="28.5025" height="28.5025" transform="rotate(-49.5581 3615.36 299.791)" fill="#184064"/>
<rect x="1183.26" y="102" width="35.7699" height="35.7699" transform="rotate(15 1183.26 102)" fill="#184064"/>
<rect x="24.2578" y="238" width="35.7699" height="35.7699" transform="rotate(15 24.2578 238)" fill="#184064"/>
<path d="M1763.77 281.373L1765.49 306.429L1742.93 295.39L1763.77 281.373Z" fill="#184064"/>
<path d="M3791.63 83.5306L3794.74 128.863L3753.92 108.892L3791.63 83.5306Z" fill="#184064"/>
<path d="M3080.39 226.383L3083.05 265.194L3048.11 248.096L3080.39 226.383Z" fill="#184064"/>
<path d="M801.233 187.197L803.985 227.285L767.891 209.624L801.233 187.197Z" fill="#184064"/>
<path d="M959.5 303C735.667 326.833 244 300 68 2" stroke="#184064" stroke-width="4" stroke-dasharray="30 20"/>
<path d="M2809.5 364C3020.17 409.667 3421 401.6 3339 4" stroke="#184064" stroke-width="4" stroke-dasharray="30 20"/>
</svg>
