<svg width="3801" height="385" viewBox="0 0 3801 385" fill="none" xmlns="http://www.w3.org/2000/svg">
<path d="M943 303C1070.84 294.652 1337.82 224.566 1383 11" stroke="#184064" stroke-width="4" stroke-dasharray="30 20"/>
<path d="M2262.14 364C2229.42 286.228 2208.25 120.851 2385.33 81.523C2606.69 32.3627 2490 326.544 2796 364" stroke="#184064" stroke-width="4" stroke-dasharray="30 20"/>
<rect x="2643" y="129.624" width="41.2474" height="41.2474" transform="rotate(-30 2643 129.624)" fill="#184064"/>
<rect x="3600.36" y="299.791" width="28.5025" height="28.5025" transform="rotate(-49.5581 3600.36 299.791)" fill="#184064"/>
<rect x="1168.26" y="102" width="35.7699" height="35.7699" transform="rotate(15 1168.26 102)" fill="#184064"/>
<rect x="9.25781" y="238" width="35.7699" height="35.7699" transform="rotate(15 9.25781 238)" fill="#184064"/>
<path d="M1748.77 281.373L1750.49 306.429L1727.93 295.39L1748.77 281.373Z" fill="#184064"/>
<path d="M3776.63 83.5306L3779.74 128.863L3738.92 108.892L3776.63 83.5306Z" fill="#184064"/>
<path d="M3065.39 226.383L3068.05 265.194L3033.11 248.096L3065.39 226.383Z" fill="#184064"/>
<path d="M786.233 187.197L788.985 227.285L752.891 209.624L786.233 187.197Z" fill="#184064"/>
<path d="M944.5 303C720.667 326.833 229 300 53 2" stroke="#184064" stroke-width="4" stroke-dasharray="30 20"/>
<path d="M2794.5 364C3005.17 409.667 3406 401.6 3324 4" stroke="#184064" stroke-width="4" stroke-dasharray="30 20"/>
</svg>
