<svg width="1915" height="750" viewBox="0 0 1915 750" fill="none" xmlns="http://www.w3.org/2000/svg">
<path d="M1755.44 101.818L1748.78 186.935L1677.66 137.02L1755.44 101.818Z" fill="#5196D7"/>
<path d="M943.493 618.872L990.171 645.187L942.944 672.454L943.493 618.872Z" fill="#5196D7"/>
<path d="M191.383 259.315L260.515 298.289L190.57 338.672L191.383 259.315Z" fill="#5196D7"/>
<rect x="1665" y="539.685" width="37.9304" height="37.9304" transform="rotate(-34.8701 1665 539.685)" fill="#5196D7"/>
<rect x="1008.59" y="140.363" width="44.777" height="44.777" transform="rotate(-60 1008.59 140.363)" fill="#5196D7"/>
<rect x="277" y="518.03" width="31.0892" height="31.0892" transform="rotate(-75 277 518.03)" fill="#5196D7"/>
<path d="M0 356C81.0751 491.833 318.625 728.3 620.225 587.5C921.824 446.7 861.633 631.167 793.837 741" stroke="#5196D7" stroke-width="4" stroke-dasharray="30 20"/>
<path d="M1914 2.49999C1755.5 -0.166672 1494.9 50.5 1720.5 274.5C1946.1 498.5 1723.17 683.5 1583.5 748" stroke="#5196D7" stroke-width="4" stroke-dasharray="30 20"/>
</svg>
