<svg width="3804" height="621" viewBox="0 0 3804 621" fill="none" xmlns="http://www.w3.org/2000/svg">
<path d="M2770.94 81.8934L2767.72 122.929L2733.44 98.8644L2770.94 81.8934Z" fill="#5196D7"/>
<path d="M3778.16 421.628L3777.45 472.708L3733.07 445.639L3778.16 421.628Z" fill="#5196D7"/>
<path d="M1939.69 517.098L1978.53 538.994L1939.23 561.682L1939.69 517.098Z" fill="#5196D7"/>
<path d="M1289.09 19.1354L1297.32 70.301L1248.24 51.0139L1289.09 19.1354Z" fill="#5196D7"/>
<path d="M554.094 181.135L562.323 232.301L513.236 213.014L554.094 181.135Z" fill="#5196D7"/>
<path d="M50.0944 441.135L58.3232 492.301L9.23614 473.014L50.0944 441.135Z" fill="#5196D7"/>
<rect x="2586" y="451.685" width="37.9304" height="37.9304" transform="rotate(-34.8701 2586 451.685)" fill="#5196D7"/>
<rect x="3388.41" y="144" width="45.6412" height="45.6412" transform="rotate(41.7842 3388.41 144)" fill="#5196D7"/>
<rect x="3007.18" y="327.039" width="27.6742" height="27.6742" transform="rotate(-6.91317 3007.18 327.039)" fill="#5196D7"/>
<rect x="1928.61" y="91.3282" width="31.5558" height="31.5558" transform="rotate(-60 1928.61 91.3282)" fill="#5196D7"/>
<rect x="1561" y="429.685" width="26.5911" height="26.5911" transform="rotate(-75 1561 429.685)" fill="#5196D7"/>
<rect x="871" y="391.816" width="46.3965" height="46.3965" transform="rotate(-75 871 391.816)" fill="#5196D7"/>
<rect x="39" y="73.685" width="26.5911" height="26.5911" transform="rotate(-75 39 73.685)" fill="#5196D7"/>
<path d="M1119 296C1186.51 409.253 1384.33 606.411 1635.49 489.017C1886.64 371.623 1836.52 525.425 1780.06 617" stroke="#5196D7" stroke-width="4" stroke-dasharray="30 20"/>
<path d="M2856 2.081C2713.57 -0.118577 2479.38 41.6734 2682.11 226.438C2884.85 411.202 2684.51 563.798 2559 617" stroke="#5196D7" stroke-width="4" stroke-dasharray="30 20"/>
<path d="M2856 2.5193C2979.17 -2.60523 3206 28.0394 3128 191.614C3050 355.189 3248.83 544.694 3358 619" stroke="#5196D7" stroke-width="4" stroke-dasharray="30.2 30.2"/>
<path d="M1120 297.968C1053.6 198.791 849.919 5.43775 566.424 25.4398C282.929 45.4418 176.685 427.481 159 616" stroke="#5196D7" stroke-width="4" stroke-dasharray="30 20"/>
</svg>
