<svg width="4000" height="837" viewBox="0 0 4000 837" fill="none" xmlns="http://www.w3.org/2000/svg">
<path d="M2052 835C2191.73 800.013 2443.54 681.39 2332.96 486.79C2194.73 243.541 2272.62 102.764 2430.21 114.703C2587.8 126.642 2827.33 148.529 2957 374.865" stroke="#EFEFEF" stroke-width="4" stroke-dasharray="30 20"/>
<path d="M1317 832.5C1224.33 795.167 1076.4 685.7 1226 546.5C1413 372.5 1784 221.5 1207.5 6" stroke="#EFEFEF" stroke-width="4" stroke-dasharray="30 20"/>
<path d="M1221.63 140.429L1272.49 182.209L1210.88 205.363L1221.63 140.429Z" fill="#F3F3F3"/>
<path d="M334.456 266.111L370.762 320.062L305.886 324.528L334.456 266.111Z" fill="#F3F3F3"/>
<path d="M2512.33 701.782L2514.55 749.149L2470.2 723.546L2512.33 701.782Z" fill="#F3F3F3"/>
<path d="M3400.51 242.897L3403.77 312.537L3338.57 274.895L3400.51 242.897Z" fill="#F3F3F3"/>
<rect x="2710.77" y="443.685" width="56" height="56" transform="rotate(-29.9007 2710.77 443.685)" fill="#F3F3F3"/>
<rect x="3924" y="634.916" width="56" height="56" transform="rotate(-29.9007 3924 634.916)" fill="#F3F3F3"/>
<rect x="1468.94" y="724.637" width="59.4515" height="59.4515" transform="rotate(-29.9007 1468.94 724.637)" fill="#F3F3F3"/>
<rect x="783" y="558.636" width="40.3023" height="40.3023" transform="rotate(-29.9007 783 558.636)" fill="#F3F3F3"/>
<rect y="558.091" width="40.3023" height="40.3023" transform="rotate(-29.9007 0 558.091)" fill="#F3F3F3"/>
<path d="M2957 374.5C3170.33 697 3633.6 1073.8 3780 1" stroke="#EFEFEF" stroke-width="4" stroke-dasharray="30 20"/>
<path d="M193 3C500.333 69.6667 969.8 329.2 389 834" stroke="#F3F3F3" stroke-width="4" stroke-dasharray="30 20"/>
</svg>
