<svg width="4000" height="1630" viewBox="0 0 4000 1630" fill="none" xmlns="http://www.w3.org/2000/svg">
<path d="M2052 835C2191.73 800.013 2443.54 681.39 2332.96 486.79C2194.73 243.541 2272.62 102.764 2430.21 114.703C2587.8 126.642 2827.33 148.529 2957 374.865" stroke="#EDEDED" stroke-width="4" stroke-dasharray="30 20"/>
<path d="M1317 832.5C1224.33 795.167 1076.4 685.7 1226 546.5C1413 372.5 1784 221.5 1207.5 6" stroke="#EDEDED" stroke-width="4" stroke-dasharray="30 20"/>
<path d="M1221.63 140.429L1272.49 182.209L1210.88 205.363L1221.63 140.429Z" fill="#EDEDED"/>
<path d="M334.456 266.111L370.762 320.062L305.886 324.528L334.456 266.111Z" fill="#EDEDED"/>
<path d="M2512.33 701.782L2514.55 749.149L2470.2 723.546L2512.33 701.782Z" fill="#EDEDED"/>
<path d="M3400.51 242.897L3403.77 312.537L3338.57 274.895L3400.51 242.897Z" fill="#EDEDED"/>
<rect x="2710.77" y="443.685" width="56" height="56" transform="rotate(-29.9007 2710.77 443.685)" fill="#EDEDED"/>
<rect x="3924" y="634.916" width="56" height="56" transform="rotate(-29.9007 3924 634.916)" fill="#EDEDED"/>
<rect x="1468.94" y="724.637" width="59.4515" height="59.4515" transform="rotate(-29.9007 1468.94 724.637)" fill="#EDEDED"/>
<rect x="783" y="558.636" width="40.3023" height="40.3023" transform="rotate(-29.9007 783 558.636)" fill="#EDEDED"/>
<rect y="558.091" width="40.3023" height="40.3023" transform="rotate(-29.9007 0 558.091)" fill="#EDEDED"/>
<path d="M2957 374.5C3170.33 697 3633.6 1073.8 3780 1" stroke="#EDEDED" stroke-width="4" stroke-dasharray="30 20"/>
<path d="M193 3C500.333 69.6667 969.8 329.2 389 834" stroke="#EDEDED" stroke-width="4" stroke-dasharray="30 20"/>
<path d="M372.998 847C292.498 920.167 192.498 1087.5 436.498 1171.5C741.498 1276.5 199.497 1393.5 173 1400C64.3422 1426.65 24.5 1592.5 166.5 1624.5" stroke="#EDEDED" stroke-width="4" stroke-dasharray="30 20"/>
<path d="M1336 841.5C1410 866.5 1939.5 1042.56 1421.5 1182.5C770.002 1358.5 1160 1627 1190 1627.5" stroke="#EDEDED" stroke-width="4" stroke-dasharray="30 20"/>
<path d="M2024 844C1951.33 862 1856.8 934.4 2060 1080C2308.17 1205.67 2898.9 1395.7 3276.5 1150.5C3748.5 844 3815 1452.5 3782.5 1613" stroke="#EDEDED" stroke-width="4" stroke-dasharray="30 20"/>
<path d="M1885.68 1362.63L1908.55 1446.16L1824.78 1424.2L1885.68 1362.63Z" fill="#EDEDED"/>
<path d="M2891.2 1047.01L2944.37 1076.72L2892.06 1107.91L2891.2 1047.01Z" fill="#EDEDED"/>
<path d="M185.593 1146.4L198.945 1195.17L150.036 1182.35L185.593 1146.4Z" fill="#EDEDED"/>
<rect x="3489" y="1289.69" width="44" height="44" transform="rotate(-22.291 3489 1289.69)" fill="#EDEDED"/>
<rect x="699" y="1386.69" width="44" height="44" transform="rotate(-22.291 699 1386.69)" fill="#EDEDED"/>
</svg>
