<svg width="3800" height="800" viewBox="0 0 3800 800" fill="none" xmlns="http://www.w3.org/2000/svg">
<path d="M2932 337C2800 235.167 2477.09 256.318 2359.5 374.5C2204.83 504 2006.4 769.6 2450 796" stroke="#5196D7" stroke-width="4" stroke-dasharray="30 20"/>
<path d="M2695.44 623.818L2688.78 708.935L2617.66 659.02L2695.44 623.818Z" fill="#5196D7"/>
<path d="M3324.25 224.043L3396.73 252.866L3333.94 301.438L3324.25 224.043Z" fill="#5196D7"/>
<path d="M2219.27 52.7425L2265.94 79.0579L2218.72 106.325L2219.27 52.7425Z" fill="#5196D7"/>
<path d="M1160.91 166.361L1212.12 195.229L1160.31 225.14L1160.91 166.361Z" fill="#5196D7"/>
<path d="M-2.06089e-06 558.148L69.0768 517.317L69.0768 598.979L-2.06089e-06 558.148Z" fill="#5196D7"/>
<path d="M810.273 386.348L807.563 466.545L738.707 422.64L810.273 386.348Z" fill="#5196D7"/>
<rect x="2605" y="144.686" width="37.9304" height="37.9304" transform="rotate(-34.8701 2605 144.686)" fill="#5196D7"/>
<rect x="3747" y="672.686" width="37.9304" height="37.9304" transform="rotate(-34.8701 3747 672.686)" fill="#5196D7"/>
<rect x="1217" y="679.03" width="31.0892" height="31.0892" transform="rotate(-75 1217 679.03)" fill="#5196D7"/>
<rect x="296" y="179.03" width="31.0892" height="31.0892" transform="rotate(-75 296 179.03)" fill="#5196D7"/>
<path d="M944 798C1040.57 771.887 1212.01 664.773 1125.2 445.215C1038.38 225.658 1089.02 58.2563 1125.2 2" stroke="#5196D7" stroke-width="4" stroke-dasharray="30 20"/>
<path d="M2930 336C3187.71 529.653 3716.91 804.37 3772 354.014" stroke="#5196D7" stroke-width="4" stroke-dasharray="30.2 30.2"/>
<path d="M58 798C331.007 696.077 781.178 394.584 397.806 4" stroke="#5196D7" stroke-width="4" stroke-dasharray="30 20"/>
<path d="M3771.41 357C3788.27 241.673 3797.39 9.61591 3699 4" stroke="#5196D7" stroke-width="4" stroke-dasharray="30.2 30.2"/>
</svg>
