<svg width="56" height="56" fill="none" xmlns="http://www.w3.org/2000/svg"><g clip-path="url(#clip0)" fill="#F38649"><path d="M1.59 13.36c.105-.003 2.268-.076 5.443-.006v-6.51c0-.959.819-1.72 1.784-1.64C15.147 5.731 23.2 8.528 28 13.63c4.799-5.102 12.853-7.9 19.183-8.428a1.648 1.648 0 011.784 1.642v6.685c1.804-.068 3.51-.116 5.337-.17A1.648 1.648 0 0156 15.007v29.995c0 .867-.672 1.585-1.536 1.643-6.552.441-17.527.49-25.818 4.027-.739.315-1.402-.047-1.292 0-8.29-3.536-19.264-3.586-25.818-4.027A1.647 1.647 0 010 45.002V15.007c0-.888.703-1.615 1.59-1.646zm8.737-4.663v28.23c4.75 1.062 10.769 3.33 16.026 8.136V16.752c-3.604-4.496-10.429-7.207-16.026-8.055zm35.346 0c-5.597.848-12.422 3.559-16.026 8.055v28.311c5.257-4.807 11.277-7.074 16.026-8.137V8.697zm7.033 34.755v-26.75c-1.18.036-2.44.075-3.739.125v21.442c0 .792-.564 1.473-1.343 1.619-3.76.706-8.651 2.238-13.21 5.537 6.504-1.458 13.31-1.693 18.292-1.973zm-49.412 0c4.973.28 11.786.514 18.292 1.973-4.558-3.3-9.45-4.831-13.21-5.537a1.647 1.647 0 01-1.343-1.619v-21.62a120.137 120.137 0 00-3.739-.026v26.829z"/><path d="M33.918 20.546c1.276-.889 3.475-1.98 5.822-2.376a1.647 1.647 0 11.55 3.248c-1.813.306-3.55 1.178-4.489 1.83a1.647 1.647 0 01-1.883-2.702zm.165 9.275c1.174-.716 3.47-1.974 5.657-2.344a1.647 1.647 0 11.55 3.248c-1.705.288-3.708 1.43-4.49 1.908a1.647 1.647 0 01-1.717-2.812zm-13.885-6.572c-.937-.653-2.675-1.525-4.487-1.831a1.647 1.647 0 01.548-3.248c2.348.396 4.547 1.487 5.822 2.376a1.647 1.647 0 01-1.883 2.703zm-3.937 4.228c2.188.37 4.483 1.628 5.657 2.344a1.647 1.647 0 01-1.717 2.812c-.782-.478-2.784-1.62-4.489-1.908a1.647 1.647 0 01.55-3.248z"/></g><defs><clipPath id="clip0"><path transform="matrix(-1 0 0 1 56 0)" fill="#fff" d="M0 0h56v56H0z"/></clipPath></defs></svg>