<svg width="53" height="55" fill="none" xmlns="http://www.w3.org/2000/svg"><path d="M13.975 0C10.52 0 7.764 3.008 7.764 6.553c0 3.554 2.786 6.445 6.21 6.445 3.425 0 6.212-2.891 6.212-6.445C20.186 3.006 17.424 0 13.975 0zm0 9.775c-1.713 0-3.106-1.445-3.106-3.222 0-1.805 1.422-3.33 3.106-3.33 1.683 0 3.105 1.525 3.105 3.33 0 1.777-1.393 3.222-3.105 3.222z" fill="#D56DE6"/><path d="M48.342 0H26.397c-2.569 0-4.659 2.169-4.659 4.834V15.83l-1.364-1.416a4.544 4.544 0 00-3.294-1.416H7.764C3.483 12.998 0 16.612 0 21.055v9.668c0 2.665 2.09 4.834 4.658 4.834.544 0 1.067-.098 1.553-.276v14.885C6.21 52.832 8.3 55 10.869 55a4.55 4.55 0 003.106-1.234A4.546 4.546 0 0017.08 55c2.569 0 4.658-2.169 4.658-4.834v-21.33a4.522 4.522 0 003.636-.235l5.228-2.712h17.74c2.568 0 4.658-2.169 4.658-4.834V4.834C53 2.169 50.91 0 48.342 0zM30.196 22.496l-6.209 3.222a1.51 1.51 0 01-1.794-.302l-.91-.944c-.96-.996-2.646-.318-2.65 1.135v24.559c0 .889-.697 1.611-1.553 1.611s-1.553-.723-1.553-1.611v-16.22c0-.89-.695-1.612-1.552-1.612-.858 0-1.553.721-1.553 1.611v16.221c0 .889-.697 1.611-1.553 1.611s-1.553-.723-1.553-1.611V21.055c0-.89-.695-1.612-1.552-1.612-.858 0-1.553.722-1.553 1.612v9.668c0 .888-.697 1.611-1.553 1.611s-1.553-.723-1.553-1.611v-9.668c0-2.666 2.09-4.834 4.659-4.834h9.316c.415 0 .804.167 1.098.472l4.628 4.802c.472.49 1.194.612 1.792.302l4.21-2.184c.77-.4 1.699-.077 2.083.72.384.798.074 1.765-.695 2.163zm19.698-1.441c0 .888-.696 1.611-1.552 1.611H33.893l.029-.082c.223-.697.29-1.42.205-2.127l8.491-4.406c.767-.398 1.078-1.366.695-2.162-.384-.796-1.317-1.119-2.084-.72l-8.49 4.405c-1.36-1.366-3.48-1.8-5.32-.843l-2.575 1.336V4.834c0-.888.696-1.611 1.552-1.611h21.946c.856 0 1.553.723 1.553 1.611v16.22z" fill="#D56DE6"/></svg>