<svg width="70" height="70" fill="none" xmlns="http://www.w3.org/2000/svg"><g clip-path="url(#clip0)" fill="#F1DA02"><path d="M35.104 14.212c-5.29 0-9.592 4.546-9.592 10.135 0 5.587 4.302 10.133 9.592 10.133 5.29 0 9.592-4.545 9.592-10.133 0-5.59-4.302-10.135-9.592-10.135zm0 16.167c-3.028 0-5.49-2.706-5.49-6.032 0-3.327 2.462-6.034 5.49-6.034s5.49 2.707 5.49 6.034c0 3.326-2.462 6.032-5.49 6.032zm20.425-14.804h-.066c-4.588.038-8.288 4.005-8.248 8.84.04 4.813 3.768 8.702 8.328 8.702h.065c2.25-.019 4.35-.966 5.912-2.668 1.526-1.664 2.356-3.856 2.337-6.172-.04-4.812-3.768-8.702-8.328-8.702zm2.968 12.1c-.785.855-1.822 1.331-2.923 1.34h-.031c-2.312 0-4.206-2.07-4.226-4.634-.022-2.574 1.854-4.685 4.18-4.704h.032c2.312 0 4.205 2.072 4.226 4.634.01 1.274-.436 2.47-1.258 3.364z"/><path d="M57.654 34.143h-4.238c-3.26 0-6.23 1.271-8.438 3.344a14.339 14.339 0 00-7.326-2.002h-5.098c-2.725 0-5.276.76-7.451 2.076a12.303 12.303 0 00-8.519-3.418h-4.238C5.538 34.143 0 39.68 0 46.489v5.226h18.12v4.073h33.966v-4.073H70v-5.227c0-6.807-5.538-12.345-12.346-12.345zm-39.349 13.47H4.102V46.49c0-4.546 3.698-8.245 8.244-8.245h4.238c2.023 0 3.879.733 5.316 1.949a14.373 14.373 0 00-3.595 7.42zm29.68 4.074H22.221v-1.768a10.287 10.287 0 012.11-6.25 10.37 10.37 0 013.243-2.8 10.257 10.257 0 014.98-1.282h5.097c1.74 0 3.38.432 4.82 1.195a10.387 10.387 0 015.252 6.832c.17.74.26 1.513.26 2.305v1.768zm17.913-4.073H51.901a14.406 14.406 0 00-3.683-7.52 8.201 8.201 0 015.198-1.85h4.238c4.546 0 8.244 3.699 8.244 8.245v1.125zM14.457 15.575h-.066c-4.588.038-8.288 4.005-8.248 8.84.04 4.813 3.768 8.702 8.327 8.702h.066c2.25-.019 4.35-.966 5.912-2.668 1.526-1.664 2.355-3.856 2.336-6.172-.04-4.812-3.768-8.702-8.327-8.702zm2.968 12.1c-.785.855-1.823 1.331-2.923 1.34h-.032c-2.312 0-4.205-2.07-4.226-4.634-.021-2.574 1.854-4.685 4.181-4.704h.032c2.312 0 4.205 2.072 4.226 4.634.01 1.274-.436 2.47-1.258 3.364z"/></g><defs><clipPath id="clip0"><path fill="#fff" d="M0 0h70v70H0z"/></clipPath></defs></svg>