<?xml version="1.0" encoding="utf-8"?><svg xmlns="http://www.w3.org/2000/svg" xmlns:xlink="http://www.w3.org/1999/xlink"><symbol viewBox="0 0 53 55" id="advantages-1" xmlns="http://www.w3.org/2000/svg"><path d="M13.975 0C10.52 0 7.764 3.008 7.764 6.553c0 3.554 2.786 6.445 6.21 6.445 3.425 0 6.212-2.891 6.212-6.445C20.186 3.006 17.424 0 13.975 0zm0 9.775c-1.713 0-3.106-1.445-3.106-3.222 0-1.805 1.422-3.33 3.106-3.33 1.683 0 3.105 1.525 3.105 3.33 0 1.777-1.393 3.222-3.105 3.222z"/><path d="M48.342 0H26.397c-2.569 0-4.659 2.169-4.659 4.834V15.83l-1.364-1.416a4.544 4.544 0 00-3.294-1.416H7.764C3.483 12.998 0 16.612 0 21.055v9.668c0 2.665 2.09 4.834 4.658 4.834.544 0 1.067-.098 1.553-.276v14.885C6.21 52.832 8.3 55 10.869 55a4.55 4.55 0 003.106-1.234A4.546 4.546 0 0017.08 55c2.569 0 4.658-2.169 4.658-4.834v-21.33a4.522 4.522 0 003.636-.235l5.228-2.712h17.74c2.568 0 4.658-2.169 4.658-4.834V4.834C53 2.169 50.91 0 48.342 0zM30.196 22.496l-6.209 3.222a1.51 1.51 0 01-1.794-.302l-.91-.944c-.96-.996-2.646-.318-2.65 1.135v24.559c0 .889-.697 1.611-1.553 1.611s-1.553-.723-1.553-1.611v-16.22c0-.89-.695-1.612-1.552-1.612-.858 0-1.553.721-1.553 1.611v16.221c0 .889-.697 1.611-1.553 1.611s-1.553-.723-1.553-1.611V21.055c0-.89-.695-1.612-1.552-1.612-.858 0-1.553.722-1.553 1.612v9.668c0 .888-.697 1.611-1.553 1.611s-1.553-.723-1.553-1.611v-9.668c0-2.666 2.09-4.834 4.659-4.834h9.316c.415 0 .804.167 1.098.472l4.628 4.802c.472.49 1.194.612 1.792.302l4.21-2.184c.77-.4 1.699-.077 2.083.72.384.798.074 1.765-.695 2.163zm19.698-1.441c0 .888-.696 1.611-1.552 1.611H33.893l.029-.082c.223-.697.29-1.42.205-2.127l8.491-4.406c.767-.398 1.078-1.366.695-2.162-.384-.796-1.317-1.119-2.084-.72l-8.49 4.405c-1.36-1.366-3.48-1.8-5.32-.843l-2.575 1.336V4.834c0-.888.696-1.611 1.552-1.611h21.946c.856 0 1.553.723 1.553 1.611v16.22z"/></symbol><symbol viewBox="0 0 56 56" id="advantages-2" xmlns="http://www.w3.org/2000/svg"><g clip-path="url(#bclip0)"><path d="M1.59 13.36c.105-.003 2.268-.076 5.443-.006v-6.51c0-.959.819-1.72 1.784-1.64C15.147 5.731 23.2 8.528 28 13.63c4.799-5.102 12.853-7.9 19.183-8.428a1.648 1.648 0 011.784 1.642v6.685c1.804-.068 3.51-.116 5.337-.17A1.648 1.648 0 0156 15.007v29.995c0 .867-.672 1.585-1.536 1.643-6.552.441-17.527.49-25.818 4.027-.739.315-1.402-.047-1.292 0-8.29-3.536-19.264-3.586-25.818-4.027A1.647 1.647 0 010 45.002V15.007c0-.888.703-1.615 1.59-1.646zm8.737-4.663v28.23c4.75 1.062 10.769 3.33 16.026 8.136V16.752c-3.604-4.496-10.429-7.207-16.026-8.055zm35.346 0c-5.597.848-12.422 3.559-16.026 8.055v28.311c5.257-4.807 11.277-7.074 16.026-8.137V8.697zm7.033 34.755v-26.75c-1.18.036-2.44.075-3.739.125v21.442c0 .792-.564 1.473-1.343 1.619-3.76.706-8.651 2.238-13.21 5.537 6.504-1.458 13.31-1.693 18.292-1.973zm-49.412 0c4.973.28 11.786.514 18.292 1.973-4.558-3.3-9.45-4.831-13.21-5.537a1.647 1.647 0 01-1.343-1.619v-21.62a120.137 120.137 0 00-3.739-.026v26.829z"/><path d="M33.918 20.546c1.276-.889 3.475-1.98 5.822-2.376a1.647 1.647 0 11.55 3.248c-1.813.306-3.55 1.178-4.489 1.83a1.647 1.647 0 01-1.883-2.702zm.165 9.275c1.174-.716 3.47-1.974 5.657-2.344a1.647 1.647 0 11.55 3.248c-1.705.288-3.708 1.43-4.49 1.908a1.647 1.647 0 01-1.717-2.812zm-13.885-6.572c-.937-.653-2.675-1.525-4.487-1.831a1.647 1.647 0 01.548-3.248c2.348.396 4.547 1.487 5.822 2.376a1.647 1.647 0 01-1.883 2.703zm-3.937 4.228c2.188.37 4.483 1.628 5.657 2.344a1.647 1.647 0 01-1.717 2.812c-.782-.478-2.784-1.62-4.489-1.908a1.647 1.647 0 01.55-3.248z"/></g><defs><clipPath id="bclip0"><path transform="matrix(-1 0 0 1 56 0)" d="M0 0h56v56H0z"/></clipPath></defs></symbol><symbol viewBox="0 0 70 70" id="advantages-3" xmlns="http://www.w3.org/2000/svg"><g clip-path="url(#cclip0)"><path d="M35.104 14.212c-5.29 0-9.592 4.546-9.592 10.135 0 5.587 4.302 10.133 9.592 10.133 5.29 0 9.592-4.545 9.592-10.133 0-5.59-4.302-10.135-9.592-10.135zm0 16.167c-3.028 0-5.49-2.706-5.49-6.032 0-3.327 2.462-6.034 5.49-6.034s5.49 2.707 5.49 6.034c0 3.326-2.462 6.032-5.49 6.032zm20.425-14.804h-.066c-4.588.038-8.288 4.005-8.248 8.84.04 4.813 3.768 8.702 8.328 8.702h.065c2.25-.019 4.35-.966 5.912-2.668 1.526-1.664 2.356-3.856 2.337-6.172-.04-4.812-3.768-8.702-8.328-8.702zm2.968 12.1c-.785.855-1.822 1.331-2.923 1.34h-.031c-2.312 0-4.206-2.07-4.226-4.634-.022-2.574 1.854-4.685 4.18-4.704h.032c2.312 0 4.205 2.072 4.226 4.634.01 1.274-.436 2.47-1.258 3.364z"/><path d="M57.654 34.143h-4.238c-3.26 0-6.23 1.271-8.438 3.344a14.339 14.339 0 00-7.326-2.002h-5.098c-2.725 0-5.276.76-7.451 2.076a12.303 12.303 0 00-8.519-3.418h-4.238C5.538 34.143 0 39.68 0 46.489v5.226h18.12v4.073h33.966v-4.073H70v-5.227c0-6.807-5.538-12.345-12.346-12.345zm-39.349 13.47H4.102V46.49c0-4.546 3.698-8.245 8.244-8.245h4.238c2.023 0 3.879.733 5.316 1.949a14.373 14.373 0 00-3.595 7.42zm29.68 4.074H22.221v-1.768a10.287 10.287 0 012.11-6.25 10.37 10.37 0 013.243-2.8 10.257 10.257 0 014.98-1.282h5.097c1.74 0 3.38.432 4.82 1.195a10.387 10.387 0 015.252 6.832c.17.74.26 1.513.26 2.305v1.768zm17.913-4.073H51.901a14.406 14.406 0 00-3.683-7.52 8.201 8.201 0 015.198-1.85h4.238c4.546 0 8.244 3.699 8.244 8.245v1.125zM14.457 15.575h-.066c-4.588.038-8.288 4.005-8.248 8.84.04 4.813 3.768 8.702 8.327 8.702h.066c2.25-.019 4.35-.966 5.912-2.668 1.526-1.664 2.355-3.856 2.336-6.172-.04-4.812-3.768-8.702-8.327-8.702zm2.968 12.1c-.785.855-1.823 1.331-2.923 1.34h-.032c-2.312 0-4.205-2.07-4.226-4.634-.021-2.574 1.854-4.685 4.181-4.704h.032c2.312 0 4.205 2.072 4.226 4.634.01 1.274-.436 2.47-1.258 3.364z"/></g><defs><clipPath id="cclip0"><path d="M0 0h70v70H0z"/></clipPath></defs></symbol><symbol viewBox="0 0 49 49" id="advantages-4" xmlns="http://www.w3.org/2000/svg"><path d="M45.599 18.552L41.934 6.337a4.567 4.567 0 00-4.4-3.274H11.466a4.567 4.567 0 00-4.4 3.274L3.4 18.552C1.448 19.08 0 20.85 0 22.969V36.75a3.066 3.066 0 003.062 3.063v1.53a4.599 4.599 0 004.594 4.594h3.063a4.599 4.599 0 004.593-4.593v-1.532h18.375v1.532a4.599 4.599 0 004.594 4.593h3.063a4.599 4.599 0 004.593-4.593v-1.532A3.066 3.066 0 0049 36.75V22.969c0-2.118-1.448-3.888-3.401-4.417zM9.999 7.217a1.521 1.521 0 011.467-1.092h26.067c.682 0 1.271.438 1.467 1.092l3.348 11.158H6.652L9.999 7.217zm2.25 34.127c0 .845-.686 1.531-1.53 1.531H7.656a1.532 1.532 0 01-1.531-1.531v-1.531h6.125v1.53zm30.626 0c0 .845-.687 1.531-1.531 1.531H38.28a1.532 1.532 0 01-1.531-1.531v-1.531h6.125v1.53zM3.062 36.75V22.97c0-.845.687-1.531 1.532-1.531h39.812c.845 0 1.531.686 1.531 1.53V36.75H3.062z"/><path d="M10.898 25.217a4.599 4.599 0 00-4.593 4.594 4.599 4.599 0 004.593 4.594 4.599 4.599 0 004.594-4.594 4.599 4.599 0 00-4.594-4.594zm0 6.125a1.532 1.532 0 010-3.062 1.532 1.532 0 010 3.062zm28.37-6.125a4.599 4.599 0 00-4.594 4.594 4.599 4.599 0 004.594 4.594 4.599 4.599 0 004.593-4.594 4.599 4.599 0 00-4.593-4.594zm0 6.125a1.532 1.532 0 010-3.062 1.532 1.532 0 010 3.062z"/></symbol><symbol viewBox="0 0 53 53" id="advantages-5" xmlns="http://www.w3.org/2000/svg"><g clip-path="url(#eclip0)"><path d="M52.86 20.393c-.402-1.235-1.597-2.084-3.28-2.328L35.863 16.07 29.728 3.64c-.752-1.524-1.93-2.399-3.228-2.399-1.299 0-2.475.875-3.228 2.4l-6.134 12.43L3.42 18.064c-1.683.244-2.879 1.093-3.28 2.328-.4 1.236.067 2.625 1.285 3.812l9.927 9.675-2.344 13.662c-.3 1.747.211 2.794.692 3.365.565.67 1.388 1.039 2.318 1.039.7 0 1.445-.205 2.213-.61l12.27-6.45 12.269 6.45c.768.405 1.512.61 2.212.61.93 0 1.754-.37 2.318-1.039.482-.57.992-1.618.692-3.365L41.65 33.88l9.926-9.675c1.218-1.187 1.686-2.576 1.284-3.812zm-3.453 1.588l-10.51 10.245a1.553 1.553 0 00-.446 1.374l2.48 14.467c.073.421.042.66.013.772-.11-.008-.348-.05-.73-.25l-12.991-6.83a1.553 1.553 0 00-1.445 0l-12.992 6.83c-.38.2-.619.242-.73.25-.028-.112-.06-.35.013-.772l2.481-14.466a1.553 1.553 0 00-.446-1.374L3.594 21.98c-.307-.298-.422-.51-.465-.616.098-.062.315-.165.738-.227l14.526-2.11a1.553 1.553 0 001.169-.85l6.495-13.162c.19-.383.355-.557.444-.631.088.074.254.248.443.631l6.495 13.162c.227.458.664.776 1.17.85l14.524 2.11c.423.062.64.165.738.227-.043.106-.158.318-.464.616z"/></g><defs><clipPath id="eclip0"><path d="M0 0h53v53H0z"/></clipPath></defs></symbol><symbol viewBox="0 0 62 63" id="advantages-6" xmlns="http://www.w3.org/2000/svg"><g clip-path="url(#fclip0)"><path d="M28.608 42.73a1.244 1.244 0 000-1.741 1.203 1.203 0 00-1.716 0 1.245 1.245 0 000 1.741c.474.48 1.242.48 1.716 0zm-5.743-29.199c0 7.461 5.986 13.532 13.343 13.532s13.342-6.07 13.342-13.532C49.55 6.071 43.565 0 36.208 0S22.865 6.07 22.865 13.531zm24.26 0c0 6.105-4.898 11.072-10.917 11.072-6.02 0-10.917-4.967-10.917-11.072 0-6.104 4.897-11.07 10.917-11.07s10.917 4.966 10.917 11.07z"/><path d="M14.032 62.636a1.2 1.2 0 001.712.01l5.88-5.875c1-1.014 1.303-2.514.864-3.818l1.265-1.237a3.591 3.591 0 012.526-1.035h16.125c2.86 0 5.564-1.114 7.614-3.137.085-.083-.64.783 11.001-13.327 1.727-2.072 1.468-5.183-.576-6.936a4.817 4.817 0 00-6.807.55l-7.158 7.46a4.85 4.85 0 00-3.77-1.831H29.18a15.46 15.46 0 00-6.074-1.23c-5.84 0-10.941 2.735-13.678 7.865a3.59 3.59 0 00-3.244 1.02l-5.77 5.869a1.243 1.243 0 00-.002 1.735l13.619 13.917zm9.075-27.947c1.858 0 3.654.38 5.34 1.128.153.068.319.103.486.103h13.774c1.315 0 2.426 1.088 2.426 2.46 0 1.357-1.088 2.46-2.426 2.46h-9.896c-.67 0-1.213.551-1.213 1.23 0 .68.543 1.23 1.213 1.23h9.896c2.676 0 4.852-2.207 4.852-4.92 0-.216-.015-.43-.043-.643 6.924-7.218 7.9-8.232 7.942-8.283a2.41 2.41 0 013.42-.293 2.49 2.49 0 01.285 3.472l-10.88 13.19a8.384 8.384 0 01-5.88 2.398H26.28c-1.58 0-3.076.613-4.21 1.725l-1.032 1.009-9.502-9.637c2.22-4.225 6.388-6.628 11.572-6.628zM7.9 42.854a1.197 1.197 0 011.502-.173c.21.13-.393-.427 10.506 10.61.485.492.46 1.276.007 1.735l-5.013 5.008-11.918-12.18 4.917-5.001zM34.752 6.15v1.442a3.693 3.693 0 00-2.426 3.48c0 2.034 1.632 3.69 3.639 3.69.668 0 1.212.551 1.212 1.23 0 .678-.544 1.23-1.212 1.23-.519 0-1.078-.33-1.575-.93a1.202 1.202 0 00-1.71-.15 1.242 1.242 0 00-.147 1.733c.648.782 1.41 1.326 2.219 1.602v1.435c0 .68.543 1.23 1.213 1.23s1.212-.55 1.212-1.23v-1.441a3.694 3.694 0 002.426-3.48c0-2.034-1.632-3.69-3.638-3.69a1.223 1.223 0 01-1.213-1.23c0-.678.544-1.23 1.213-1.23.43 0 .883.222 1.311.643.482.472 1.25.46 1.716-.028a1.243 1.243 0 00-.028-1.74c-.616-.604-1.232-.946-1.787-1.132V6.15c0-.68-.543-1.23-1.212-1.23-.67 0-1.213.55-1.213 1.23z"/></g><defs><clipPath id="fclip0"><path d="M0 0h62v63H0z"/></clipPath></defs></symbol><symbol viewBox="0 0 16 16" id="arrow" xmlns="http://www.w3.org/2000/svg"><g clip-path="url(#gclip0)"><path d="M.9 6.745l-.026.006h10.707L8.215 3.377a.876.876 0 01-.255-.621c0-.235.09-.456.255-.621l.524-.524a.868.868 0 01.618-.256c.234 0 .454.09.618.255l5.77 5.77a.867.867 0 01.255.619.87.87 0 01-.255.621l-5.77 5.77a.868.868 0 01-.618.255.869.869 0 01-.618-.255l-.524-.524a.867.867 0 01-.255-.619.84.84 0 01.255-.606l3.404-3.392H.887A.907.907 0 010 8.35v-.74c0-.483.417-.866.9-.866z"/></g><defs><clipPath id="gclip0"><path transform="matrix(-1 0 0 1 16 0)" d="M0 0h16v16H0z"/></clipPath></defs></symbol><symbol viewBox="0 0 16 14" id="arrow-list" xmlns="http://www.w3.org/2000/svg"><path d="M.9 8.255L.873 8.25H11.58l-3.366 3.373a.876.876 0 00-.255.622c0 .234.09.455.255.62l.524.524a.868.868 0 00.618.256c.234 0 .454-.09.618-.255l5.77-5.77A.867.867 0 0016 7.002a.867.867 0 00-.255-.62L9.975.61a.868.868 0 00-.618-.255.869.869 0 00-.618.255l-.524.524a.867.867 0 00-.255.618c0 .234.09.442.255.606l3.404 3.392H.887a.907.907 0 00-.887.9v.74c0 .483.417.866.9.866z"/></symbol><symbol viewBox="0 0 27 27" id="foreign-camp" xmlns="http://www.w3.org/2000/svg"><path d="M22.94 23.143A13.397 13.397 0 0027 13.5c0-3.655-1.442-7.08-4.06-9.643A13.422 13.422 0 0013.5 0C9.954 0 6.601 1.37 4.061 3.857A13.394 13.394 0 000 13.5c0 3.654 1.442 7.08 4.061 9.643.92.901 1.958 1.663 3.083 2.265l.003.002.01.004.011.006a13.06 13.06 0 001.134.54l.006.002h.001l.002.001c.028.012.06.024.11.04l.03.012h.001c.163.066.316.125.462.18l.048.016c.197.072.385.137.567.193.07.021.142.04.214.056l.114.03h.007c.306.087.612.171.927.236.005 0 .01.003.016.004.06.012.12.019.18.028.086.014.172.03.258.041l.03.005.351.054c.168.028.335.056.506.073a13.749 13.749 0 002.736 0h.001c.167-.017.33-.044.494-.072l.397-.06c.146-.02.292-.04.434-.07.322-.065.635-.152.948-.24l.115-.029a3.16 3.16 0 00.212-.055c.157-.049.318-.103.49-.164l.027-.01c.183-.066.38-.142.601-.23.034-.012.069-.024.102-.038h.003c.224-.095.45-.2.678-.31l.056-.025c.1-.05.198-.1.297-.152l.132-.066c.124-.067.244-.143.366-.214a13.506 13.506 0 002.007-1.404c.244-.207.482-.424.711-.649zm-1.58-.099a12.327 12.327 0 01-1.07.79c-.095.063-.188.127-.284.186a12.52 12.52 0 01-.5.291c-.068.038-.133.079-.2.115h-.003l-.053.028a11.54 11.54 0 01-.385.194c-.126.06-.252.116-.378.172-.089.039-.174.08-.266.117l-.09.033h-.001a12.14 12.14 0 01-.992.36 2.097 2.097 0 01-.14.036c-.048.012-.096.022-.143.035l.063-.069c.06-.064.12-.132.18-.2a8.288 8.288 0 00.714-.929 10.285 10.285 0 00.512-.842 11.99 11.99 0 00.311-.603c.043-.088.086-.176.128-.266.057-.125.112-.253.167-.382.038-.09.077-.178.114-.27.055-.138.108-.28.162-.423l.1-.268c.006-.02.014-.037.02-.056.08.043.163.082.242.126a13.59 13.59 0 01.98.606l.026.017c.252.174.494.36.73.552.067.053.13.108.195.162.072.06.14.126.21.188-.04.035-.078.073-.119.108a8.654 8.654 0 01-.23.192zm-14.606.82a12.025 12.025 0 01-1.346-1.014c-.04-.034-.077-.071-.116-.106.07-.062.137-.127.208-.187a12.261 12.261 0 01.925-.714c.01-.008.022-.014.033-.022a12.536 12.536 0 01.974-.601c.079-.045.162-.084.242-.127l.02.055c.034.095.07.185.104.278.051.138.102.276.157.41.039.098.08.193.121.288.052.122.104.244.159.362.044.097.09.19.136.285.054.11.107.22.162.326a12.453 12.453 0 00.818 1.34 9.461 9.461 0 00.55.695c.06.068.12.135.181.2.021.022.041.047.063.069a3.842 3.842 0 00-.142-.035c-.047-.011-.094-.022-.14-.036l-.001-.001c-.165-.051-.338-.11-.52-.177a16.555 16.555 0 01-.474-.182l-.128-.047h-.001a13.853 13.853 0 01-1.002-.475l-.038-.02-.003-.001h-.001l-.013-.007-.006-.003a12.273 12.273 0 01-.701-.408c-.075-.047-.148-.097-.221-.145zM8.813 6.07a17.333 17.333 0 01.224-.578 13.61 13.61 0 01.391-.861 11.118 11.118 0 01.308-.58l.048-.088c.088-.15.178-.295.27-.435.032-.05.066-.097.1-.145.06-.09.123-.18.186-.266.038-.052.078-.101.117-.152a7.322 7.322 0 01.488-.565 5.479 5.479 0 01.327-.313c.037-.033.074-.068.112-.1.09-.074.18-.143.27-.208.018-.012.034-.027.051-.039.109-.075.218-.143.328-.205.032-.018.065-.033.097-.05.079-.04.158-.08.238-.115.04-.017.08-.032.121-.048a3.096 3.096 0 01.348-.11c.034-.01.067-.014.1-.022v6.186l-.044-.001a12.145 12.145 0 01-.945-.086l-.208-.029a12.198 12.198 0 01-.947-.173l-.064-.016c-.298-.07-.594-.154-.887-.246l-.192-.06a12.78 12.78 0 01-.955-.363l.03-.087c.028-.083.058-.164.088-.245zm5.479-4.823c.073.021.146.047.218.075.041.016.082.03.122.048.08.034.16.074.238.115.032.017.065.032.097.05.11.062.22.13.328.205.017.012.034.027.05.04.091.064.182.133.27.207.039.032.076.067.113.1.068.06.136.121.203.186a6.652 6.652 0 01.612.691c.04.052.079.102.117.154.064.085.126.175.187.265l.099.144c.091.14.182.285.27.436.017.029.032.06.049.09.072.125.142.253.212.386l.096.193c.052.104.103.208.153.317a13.486 13.486 0 01.46 1.12c.03.081.061.163.09.247l.029.086-.063.027c-.295.124-.593.236-.894.336l-.188.059c-.294.093-.591.177-.89.247l-.063.016a12.057 12.057 0 01-1.154.202c-.314.04-.628.07-.945.086l-.046.001V1.191c.034.008.068.013.1.021.044.011.087.023.13.036zm3.894 19.684a16.221 16.221 0 01-.223.576c-.045.108-.09.214-.137.319a11.679 11.679 0 01-.254.54l-.095.193c-.07.133-.14.26-.212.387-.017.029-.032.06-.05.089-.087.15-.178.296-.27.436-.032.05-.065.095-.098.143-.061.091-.123.18-.187.266-.038.052-.078.102-.117.153a7.468 7.468 0 01-.303.366 6.216 6.216 0 01-.512.513c-.038.033-.075.067-.112.098-.09.075-.18.145-.272.21l-.05.038a4.02 4.02 0 01-.328.205c-.03.018-.063.032-.095.049a3.58 3.58 0 01-.239.116c-.04.018-.08.032-.12.047a2.992 2.992 0 01-.349.112c-.033.008-.067.013-.1.02v-6.186c.015.001.03 0 .046.002.316.015.63.045.943.085l.209.03c.317.046.633.1.946.172l.062.016c.3.07.597.154.892.247.062.02.125.039.187.06.3.1.6.211.894.335l.063.028-.029.084c-.029.085-.06.168-.09.25zm-5.35 4.856a2.672 2.672 0 01-.347-.112c-.04-.015-.08-.03-.12-.047a3.662 3.662 0 01-.24-.116c-.032-.017-.064-.031-.095-.049a4.144 4.144 0 01-.329-.205c-.016-.012-.032-.026-.049-.037a4.857 4.857 0 01-.272-.21l-.111-.1a5.434 5.434 0 01-.204-.187c-.042-.04-.082-.083-.123-.125a6.452 6.452 0 01-.49-.567 8.375 8.375 0 01-.303-.417c-.033-.048-.067-.095-.1-.145a9.871 9.871 0 01-.269-.435l-.048-.088a11.338 11.338 0 01-.213-.389l-.095-.19c-.052-.105-.104-.21-.154-.319-.034-.073-.067-.148-.1-.223a14.85 14.85 0 01-.361-.897l-.09-.248-.028-.085a12.486 12.486 0 01.955-.363l.192-.06c.293-.093.589-.176.887-.246l.065-.017a12.055 12.055 0 011.154-.202c.313-.04.627-.07.943-.085.016-.001.031 0 .046-.002v6.187c-.033-.007-.067-.013-.1-.021zm-4.734-7.37c-.09-.422-.167-.854-.234-1.293-.01-.073-.026-.144-.037-.217a23.893 23.893 0 01-.165-1.56c-.012-.159-.016-.32-.025-.48a25.49 25.49 0 01-.028-.806h5.324v4.431c-.022.001-.044.005-.067.006-.34.016-.677.046-1.013.088l-.223.03c-.323.046-.644.101-.963.17l-.077.016a13.3 13.3 0 00-1.224.34 13.79 13.79 0 00-.977.358l-.017.006c-.055-.203-.112-.405-.161-.614-.038-.158-.079-.313-.113-.474zm-.436-6.766c.04-.526.093-1.048.165-1.56.01-.072.026-.142.037-.213.066-.44.144-.874.234-1.298.034-.16.075-.316.112-.474.05-.208.107-.411.162-.615l.017.006a13.678 13.678 0 001.2.428c.33.102.664.195 1 .27l.08.016c.318.07.64.124.962.17.074.01.148.022.222.03.336.043.673.072 1.013.088.023.001.045.005.068.006v4.431H7.612c.007-.27.014-.538.029-.806.008-.16.012-.32.024-.479zm7.477-3.24c.075-.008.148-.02.223-.03.322-.046.642-.1.96-.17l.08-.015a13.434 13.434 0 001.229-.342c.324-.106.647-.222.966-.354l.023-.008c.055.202.111.403.16.61.039.16.08.317.114.479.09.423.168.856.234 1.295.01.072.026.142.037.215.072.512.126 1.034.165 1.56.012.16.016.32.024.48.015.267.023.536.029.806h-5.325V8.505c.023 0 .046-.005.068-.006.34-.016.678-.045 1.013-.087zm4.191 6.936a23.93 23.93 0 01-.165 1.56c-.01.074-.026.145-.038.219-.066.437-.143.868-.233 1.29-.035.163-.075.32-.114.48-.049.208-.105.408-.16.61l-.023-.009a13.607 13.607 0 00-1.198-.427c-.33-.1-.661-.193-.996-.268l-.08-.016a13.226 13.226 0 00-.962-.17c-.074-.01-.147-.021-.222-.03a13.16 13.16 0 00-1.013-.088c-.023 0-.045-.005-.068-.006v-4.43h5.325c-.006.269-.014.538-.029.805-.008.16-.012.321-.024.48zm3.195 6.606c-.089-.08-.183-.153-.274-.23-.082-.07-.163-.14-.246-.207a13.41 13.41 0 00-.714-.54c-.034-.023-.065-.049-.099-.072a13.885 13.885 0 00-.869-.55c-.08-.046-.163-.09-.245-.135-.136-.076-.27-.155-.409-.227.01-.038.018-.078.029-.116.109-.395.208-.8.296-1.212.016-.07.029-.142.043-.213.089-.435.168-.875.233-1.324l.002-.01c.065-.451.114-.91.154-1.373l.02-.228c.035-.444.058-.893.07-1.343 0-.037.004-.074.005-.112h5.337a12.258 12.258 0 01-3.333 7.893zm-2.004-9.017c0-.037-.005-.073-.005-.11-.012-.452-.035-.9-.07-1.345l-.02-.225a25.06 25.06 0 00-.154-1.378 24.44 24.44 0 00-.236-1.34L20 8.34c-.09-.419-.19-.829-.302-1.23-.01-.034-.016-.07-.025-.104.136-.07.266-.147.399-.22.086-.049.174-.095.258-.144.297-.173.587-.355.867-.548.032-.022.061-.046.093-.068.247-.174.487-.356.721-.545.081-.066.16-.134.24-.202.092-.078.188-.153.278-.234a12.258 12.258 0 013.333 7.893h-5.337zm1.188-8.686c-.072.065-.142.132-.216.194a12.171 12.171 0 01-.921.711l-.042.028a12.61 12.61 0 01-.971.599c-.077.043-.158.082-.237.124-.006-.02-.014-.037-.02-.056-.034-.096-.07-.188-.105-.282-.052-.137-.103-.275-.156-.408-.04-.097-.081-.192-.122-.287-.053-.123-.105-.247-.16-.365-.044-.096-.089-.187-.134-.28-.055-.113-.11-.226-.167-.335-.047-.09-.095-.177-.143-.264a12.042 12.042 0 00-.328-.557 10.03 10.03 0 00-.537-.775 8.3 8.3 0 00-.542-.636c-.025-.026-.05-.056-.074-.082a12.3 12.3 0 014.875 2.671zM10.088 1.66a7.57 7.57 0 00-.371.422 9.009 9.009 0 00-.53.714 10.717 10.717 0 00-.499.82 13.138 13.138 0 00-.312.602c-.047.097-.095.193-.14.293-.054.116-.105.236-.156.356-.042.097-.085.194-.125.295-.053.132-.104.268-.155.404-.035.095-.072.188-.106.285l-.02.054c-.081-.043-.165-.082-.244-.127l-.218-.124c-.259-.152-.513-.31-.758-.48l-.028-.017a12.24 12.24 0 01-.731-.553c-.065-.052-.128-.106-.192-.16-.074-.062-.143-.13-.216-.194a12.307 12.307 0 014.875-2.67c-.025.025-.049.054-.074.08zM4.472 5.046c.088.08.182.153.273.23.082.07.164.141.248.209.228.184.461.36.702.53.037.027.073.056.112.082.279.193.568.373.863.546.084.049.17.094.255.142.134.074.265.152.402.222-.01.034-.016.07-.025.104-.111.402-.212.811-.302 1.23l-.04.2a23.513 23.513 0 00-.236 1.34c-.065.452-.114.911-.154 1.374l-.02.23c-.035.444-.058.89-.07 1.34 0 .038-.004.075-.005.114H1.138c.13-2.96 1.3-5.727 3.333-7.893zm2.003 9.017c0 .038.005.076.006.114.011.45.034.896.069 1.34l.02.23c.04.463.09.922.154 1.373l.002.007c.064.452.145.896.234 1.333l.04.2c.09.42.19.83.302 1.231.01.034.016.07.025.103-.137.07-.268.148-.402.223-.085.047-.171.092-.255.142-.296.172-.585.353-.864.546-.038.026-.074.055-.111.081a13.547 13.547 0 00-.953.742c-.09.076-.183.149-.27.227a12.255 12.255 0 01-3.334-7.892h5.337z"/></symbol><symbol viewBox="0 0 30 26" id="karpaty-camp" xmlns="http://www.w3.org/2000/svg"><path d="M16.947.194l-5.81 11.399-1.946-3.82L0 25.806h30L16.947.194zm0 3.871l2.406 4.72-.622.422-1.806-1.222-1.806 1.222-.589-.399 2.417-4.743zm-7.756 7.579l2.23 4.377-.648.439-1.582-1.07-1.582 1.07-.649-.439 2.231-4.377zM2.869 24.049l3.287-6.45 1.453.983 1.582-1.07 1.582 1.07 1.453-.983 3.287 6.45H2.869zm9.255-10.52l1.602-3.143 1.393.943 1.806-1.222 1.806 1.222 1.426-.965 6.974 13.685h-9.645l-5.362-10.52z"/></symbol><symbol viewBox="0 0 24 25" id="lang-list" xmlns="http://www.w3.org/2000/svg"><path d="M18.286 10.768v10.5h-16V4.6h14.251l2.514-2.38H0v21.428h20.571V8.577l-2.285 2.19z"/><path d="M22.367 1.351L9.967 13.09 6.08 9.053l-1.509 1.572 5.497 5.726L24.001 3.018 22.367 1.35z"/></symbol><symbol viewBox="0 0 16 14" id="lang-list2" xmlns="http://www.w3.org/2000/svg"><path d="M.9 5.745l-.026.005h10.707L8.215 2.377a.876.876 0 01-.255-.622c0-.234.09-.455.255-.62L8.74.61a.868.868 0 01.618-.256c.234 0 .454.09.618.255l5.77 5.77a.867.867 0 01.255.619c0 .235-.09.456-.255.62l-5.77 5.77a.869.869 0 01-.618.256.869.869 0 01-.618-.256l-.524-.524a.867.867 0 01-.255-.618.84.84 0 01.255-.606l3.404-3.392H.887A.907.907 0 010 7.35v-.74c0-.483.417-.866.9-.866z"/></symbol><symbol viewBox="0 0 18 18" id="phone" xmlns="http://www.w3.org/2000/svg"><g clip-path="url(#mclip0)"><path d="M17.51 13.21L15 10.698c-.897-.897-2.423-.538-2.781.628-.27.808-1.167 1.256-1.974 1.077-1.794-.449-4.216-2.781-4.665-4.665-.27-.808.27-1.705 1.076-1.974 1.167-.359 1.526-1.884.628-2.781L4.772.471c-.718-.628-1.795-.628-2.423 0L.645 2.176C-1.06 3.97.825 8.725 5.04 12.94s8.97 6.19 10.765 4.396l1.705-1.705c.628-.717.628-1.794 0-2.422z"/></g><defs><clipPath id="mclip0"><path d="M0 0h18v18H0z"/></clipPath></defs></symbol><symbol viewBox="0 0 34 34" id="quote" xmlns="http://www.w3.org/2000/svg"><g clip-path="url(#nclip0)"><path d="M.007 23.593a8.093 8.093 0 108.094-8.094c-.919 0-1.798.16-2.622.443C7.301 5.495 15.447-1.241 7.896 4.303-.478 10.451-.002 23.345.008 23.582v.01zm17.805 0a8.093 8.093 0 1016.187 0 8.093 8.093 0 00-8.094-8.094 8.03 8.03 0 00-2.62.443C25.104 5.495 33.25-1.241 25.7 4.303c-8.373 6.148-7.897 19.042-7.888 19.279v.01z"/></g><defs><clipPath id="nclip0"><path d="M0 0h34v34H0z"/></clipPath></defs></symbol><symbol viewBox="0 0 29 29" id="school-camp" xmlns="http://www.w3.org/2000/svg"><path d="M27.603 13.896a.97.97 0 00-.508-.752V6.257h.935a.97.97 0 00.97-.97.507.507 0 00-.036-.183L27.608 1.59a.97.97 0 00-.965-.859H2.357a.97.97 0 00-.965.859L.036 5.1A.508.508 0 000 5.281c0 .536.434.97.97.97h.955v6.907a.97.97 0 00-.508.752L.036 17.42a.508.508 0 00-.036.182.97.97 0 00.97.96h.955v9.198c0 .28.227.508.508.508h24.134c.28 0 .508-.228.508-.508v-9.198h.955a.97.97 0 00.97-.97.506.506 0 00-.036-.183l-1.36-3.514zM1.072 5.24l1.295-3.357a.508.508 0 00.03-.137h24.2a.512.512 0 00.031.137l1.3 3.357H1.072zm24.987 1.016v6.79H2.941v-6.79h23.118zm-9.436 20.996h-4.251v-5.495h4.25v5.495zm1.02 0v-5.495c0-.561-.454-1.016-1.015-1.016h-4.256c-.561 0-1.016.455-1.016 1.016v5.495H2.941v-8.69h23.118l.026 8.69h-8.441zm-16.57-9.705l1.3-3.357a.508.508 0 00.03-.137h24.196a.512.512 0 00.03.137l1.3 3.357H1.072z"/><path d="M8.659 19.934H4.596a.508.508 0 00-.508.508v4.063c0 .28.227.508.508.508h4.063c.28 0 .508-.228.508-.508v-4.063a.508.508 0 00-.508-.508zm-.508 4.063H5.104V20.95H8.15v3.047zm16.252-4.063H20.34a.508.508 0 00-.508.508v4.063c0 .28.227.508.508.508h4.063c.28 0 .508-.228.508-.508v-4.063a.508.508 0 00-.508-.508zm-.508 4.063h-3.047V20.95h3.047v3.047zM8.659 7.116H4.596a.508.508 0 00-.508.508v4.063c0 .28.227.508.508.508h4.063c.28 0 .508-.228.508-.508V7.624a.508.508 0 00-.508-.508zm-.508 4.063H5.104V8.13H8.15v3.048zm16.252-4.063H20.34a.508.508 0 00-.508.508v4.063c0 .28.227.508.508.508h4.063c.28 0 .508-.228.508-.508V7.624a.508.508 0 00-.508-.508zm-.508 4.063h-3.047V8.13h3.047v3.048zm-7.363-4.063h-4.063a.508.508 0 00-.508.508v4.063c0 .28.227.508.508.508h4.063c.28 0 .508-.228.508-.508V7.624a.508.508 0 00-.508-.508zm-.508 4.063h-3.047V8.13h3.047v3.048z"/></symbol><symbol viewBox="0 0 18 19" id="user" xmlns="http://www.w3.org/2000/svg"><defs><filter id="pa" width="38" height="39" x="-10" y="-10" filterUnits="userSpaceOnUse"><feOffset dy="1" result="FeOffset1739Out" in="SourceGraphic"/><feGaussianBlur stdDeviation="0 0" result="FeGaussianBlur1740Out" in="FeOffset1739Out"/></filter><filter id="pe" width="200%" height="200%" x="-50%" y="-50%"><feGaussianBlur stdDeviation="6.5 6.5" result="FeGaussianBlur1770Out" in="SourceGraphic"/></filter><filter id="pg" width="200%" height="200%" x="-50%" y="-50%"><feGaussianBlur stdDeviation="0 0" result="FeGaussianBlur1777Out" in="SourceGraphic"/></filter><mask id="pb" x="-1" y="-1" width="2" height="2"><path d="M0 0h18v18H0z"/><path d="M9 0c4.97 0 9 3.938 9 8.796 0 4.859-4.03 8.797-9 8.797s-9-3.938-9-8.797C0 3.938 4.03 0 9 0z"/></mask><mask id="pf"><path d="M11.669 4.495c.127.506.14.549.128 1.068-.005.201-.121 1.128-.09 1.412.026.234.086.253.18.446.163.336.108.8.046 1.14-.035.184-.107.448-.217.6-.122.167-.365.168-.472.363-.155.28-.067.673-.165.976-.11.343-.393.367-.414.817l.414.058c.138.29.392.874.651 1.05l.65.175c.761.307 1.606.675 2.368.992.694.289 1.525.391 1.776 1.109 0 .487.046 1.637.033 2.275 0 0 .003 2.024-7.557 2.024-7.56 0-7.557-2.024-7.557-2.024-.013-.638.034-1.788.034-2.275.25-.718 1.081-.82 1.775-1.109.762-.317 1.607-.685 2.367-.992l.65-.175c.26-.176.514-.76.652-1.05l.308-.074c-.07-.383-.31-.413-.41-.684l-.12-1.226c.003.02-.282-.05-.32-.074-.402-.248-.41-1.257-.449-1.676-.017-.191.253-.349.178-.7-.44-2.058.19-3.021 1.188-3.34.693-.277 1.985-.79 3.191-.058l.3.273.484.082c.243.138.398.597.398.597z"/></mask><mask id="ph"><path d="M11.669 4.495c.127.506.14.549.128 1.068-.005.201-.121 1.128-.09 1.412.026.234.086.253.18.446.163.336.108.8.046 1.14-.035.184-.107.448-.217.6-.122.167-.365.168-.472.363-.155.28-.067.673-.165.976-.11.343-.393.367-.414.817l.414.058c.138.29.392.874.651 1.05l.65.175c.761.307 1.606.675 2.368.992.694.289 1.525.391 1.776 1.109 0 .487.046 1.637.033 2.275 0 0 .003 2.024-7.557 2.024-7.56 0-7.557-2.024-7.557-2.024-.013-.638.034-1.788.034-2.275.25-.718 1.081-.82 1.775-1.109.762-.317 1.607-.685 2.367-.992l.65-.175c.26-.176.514-.76.652-1.05l.308-.074c-.07-.383-.31-.413-.41-.684l-.12-1.226c.003.02-.282-.05-.32-.074-.402-.248-.41-1.257-.449-1.676-.017-.191.253-.349.178-.7-.44-2.058.19-3.021 1.188-3.34.693-.277 1.985-.79 3.191-.058l.3.273.484.082c.243.138.398.597.398.597z"/></mask><clipPath id="pc"><path d="M9 0c4.97 0 9 3.938 9 8.796 0 4.859-4.03 8.797-9 8.797s-9-3.938-9-8.797C0 3.938 4.03 0 9 0z"/></clipPath><clipPath id="pd"><path d="M9 0c4.97 0 9 3.938 9 8.796 0 4.859-4.03 8.797-9 8.797s-9-3.938-9-8.797C0 3.938 4.03 0 9 0z"/></clipPath></defs><g filter="url(#pa)"><path d="M9 0c4.97 0 9 3.938 9 8.796 0 4.859-4.03 8.797-9 8.797s-9-3.938-9-8.797C0 3.938 4.03 0 9 0z" mask="url(#pb)"/><path d="M9 0c4.97 0 9 3.938 9 8.796 0 4.859-4.03 8.797-9 8.797s-9-3.938-9-8.797C0 3.938 4.03 0 9 0z"/></g><path d="M9 0c4.97 0 9 3.938 9 8.796 0 4.859-4.03 8.797-9 8.797s-9-3.938-9-8.797C0 3.938 4.03 0 9 0z"/><path d="M9 0c4.97 0 9 3.938 9 8.796 0 4.859-4.03 8.797-9 8.797s-9-3.938-9-8.797C0 3.938 4.03 0 9 0z" clip-path="url(#pc)"/><g clip-path="url(#pd)"><path d="M-12 32v-42h42v42zM11.669 4.495s-.155-.459-.398-.597l-.485-.082-.299-.273c-1.206-.732-2.498-.219-3.19.058-.999.319-1.63 1.282-1.19 3.34.076.351-.194.509-.177.7.039.42.047 1.428.45 1.676.037.023.322.093.32.074l.118 1.226c.1.271.341.3.411.684l-.308.074c-.138.29-.392.874-.651 1.05l-.651.175c-.76.307-1.605.675-2.367.992-.694.289-1.525.391-1.775 1.109 0 .487-.047 1.637-.034 2.275C1.443 16.976 1.44 19 9 19c7.56 0 7.557-2.024 7.557-2.024.013-.638-.033-1.788-.033-2.275-.251-.718-1.082-.82-1.776-1.109-.762-.317-1.607-.685-2.367-.992a458.08 458.08 0 00-.65-.175c-.26-.176-.514-.76-.652-1.05l-.414-.058c.02-.45.303-.474.414-.817.098-.303.01-.696.165-.976.107-.195.35-.196.472-.363.11-.152.182-.416.217-.6.062-.34.117-.804-.047-1.14-.093-.193-.153-.212-.179-.446-.031-.284.085-1.211.09-1.412.012-.52 0-.562-.128-1.068z" fill-opacity=".24" filter="url(#pe)" mask="url(#pf)"/><path d="M11.669 4.495c.127.506.14.549.128 1.068-.005.201-.121 1.128-.09 1.412.026.234.086.253.18.446.163.336.108.8.046 1.14-.035.184-.107.448-.217.6-.122.167-.365.168-.472.363-.155.28-.067.673-.165.976-.11.343-.393.367-.414.817l.414.058c.138.29.392.874.651 1.05l.65.175c.761.307 1.606.675 2.368.992.694.289 1.525.391 1.776 1.109 0 .487.046 1.637.033 2.275 0 0 .003 2.024-7.557 2.024-7.56 0-7.557-2.024-7.557-2.024-.013-.638.034-1.788.034-2.275.25-.718 1.081-.82 1.775-1.109.762-.317 1.607-.685 2.367-.992l.65-.175c.26-.176.514-.76.652-1.05l.308-.074c-.07-.383-.31-.413-.41-.684l-.12-1.226c.003.02-.282-.05-.32-.074-.402-.248-.41-1.257-.449-1.676-.017-.191.253-.349.178-.7-.44-2.058.19-3.021 1.188-3.34.693-.277 1.985-.79 3.191-.058l.3.273.484.082c.243.138.398.597.398.597z"/><path d="M11.669 4.495c.127.506.14.549.128 1.068-.005.201-.121 1.128-.09 1.412.026.234.086.253.18.446.163.336.108.8.046 1.14-.035.184-.107.448-.217.6-.122.167-.365.168-.472.363-.155.28-.067.673-.165.976-.11.343-.393.367-.414.817l.414.058c.138.29.392.874.651 1.05l.65.175c.761.307 1.606.675 2.368.992.694.289 1.525.391 1.776 1.109 0 .487.046 1.637.033 2.275 0 0 .003 2.024-7.557 2.024-7.56 0-7.557-2.024-7.557-2.024-.013-.638.034-1.788.034-2.275.25-.718 1.081-.82 1.775-1.109.762-.317 1.607-.685 2.367-.992l.65-.175c.26-.176.514-.76.652-1.05l.308-.074c-.07-.383-.31-.413-.41-.684l-.12-1.226c.003.02-.282-.05-.32-.074-.402-.248-.41-1.257-.449-1.676-.017-.191.253-.349.178-.7-.44-2.058.19-3.021 1.188-3.34.693-.277 1.985-.79 3.191-.058l.3.273.484.082c.243.138.398.597.398.597z"/><path d="M-12 32v-42h42v42zM11.669 4.495s-.155-.459-.398-.597l-.485-.082-.299-.273c-1.206-.732-2.498-.219-3.19.058-.999.319-1.63 1.282-1.19 3.34.076.351-.194.509-.177.7.039.42.047 1.428.45 1.676.037.023.322.093.32.074l.118 1.226c.1.271.341.3.411.684l-.308.074c-.138.29-.392.874-.651 1.05l-.651.175c-.76.307-1.605.675-2.367.992-.694.289-1.525.391-1.775 1.109 0 .487-.047 1.637-.034 2.275C1.443 16.976 1.44 19 9 19c7.56 0 7.557-2.024 7.557-2.024.013-.638-.033-1.788-.033-2.275-.251-.718-1.082-.82-1.776-1.109-.762-.317-1.607-.685-2.367-.992a458.08 458.08 0 00-.65-.175c-.26-.176-.514-.76-.652-1.05l-.414-.058c.02-.45.303-.474.414-.817.098-.303.01-.696.165-.976.107-.195.35-.196.472-.363.11-.152.182-.416.217-.6.062-.34.117-.804-.047-1.14-.093-.193-.153-.212-.179-.446-.031-.284.085-1.211.09-1.412.012-.52 0-.562-.128-1.068z" fill-opacity=".24" filter="url(#pe)" mask="url(#pf)"/><path d="M1 20V2h16v18zM11.669 5.495s-.155-.459-.398-.597l-.485-.082-.299-.273c-1.206-.732-2.498-.219-3.19.058-.999.319-1.63 1.282-1.19 3.34.076.351-.194.509-.177.7.039.42.047 1.428.45 1.676.037.023.322.093.32.074l.118 1.226c.1.271.341.3.411.684l-.308.074c-.138.29-.392.874-.651 1.05l-.651.175c-.76.307-1.605.675-2.367.992-.694.289-1.525.391-1.775 1.109 0 .487-.047 1.637-.034 2.275C1.443 17.976 1.44 20 9 20c7.56 0 7.557-2.024 7.557-2.024.013-.638-.033-1.788-.033-2.275-.251-.718-1.082-.82-1.776-1.109-.762-.317-1.607-.685-2.367-.992a458.08 458.08 0 00-.65-.175c-.26-.176-.514-.76-.652-1.05l-.414-.058c.02-.45.303-.474.414-.817.098-.303.01-.696.165-.976.107-.195.35-.196.472-.363.11-.152.182-.416.217-.6.062-.34.117-.804-.047-1.14-.093-.193-.153-.212-.179-.446-.031-.284.085-1.211.09-1.412.012-.52 0-.562-.128-1.068z" fill-opacity=".44" filter="url(#pg)" mask="url(#ph)"/></g></symbol></svg>