<svg width="53" height="53" viewBox="0 0 53 53" fill="none" xmlns="http://www.w3.org/2000/svg">
<g clip-path="url(#clip0)">
<path d="M52.8594 20.3933C52.4583 19.158 51.2626 18.3093 49.5797 18.0646L35.8626 16.0711L29.7281 3.64194C28.9756 2.11669 27.7989 1.24207 26.5001 1.24207C25.2013 1.24207 24.0246 2.11669 23.2717 3.64194L17.138 16.0711L3.42007 18.0646C1.73713 18.3093 0.541438 19.158 0.140313 20.3933C-0.260811 21.6286 0.207437 23.018 1.42537 24.2048L11.3516 33.8799L9.00791 47.542C8.70828 49.2893 9.21898 50.3365 9.70017 50.9071C10.2651 51.5767 11.0879 51.9455 12.018 51.9455C12.7183 51.9455 13.4627 51.7409 14.231 51.3369L26.5001 44.8866L38.7696 51.3369C39.5378 51.7409 40.2823 51.9455 40.9822 51.9459H40.9826C41.9126 51.9459 42.7359 51.5767 43.3004 50.9071C43.7816 50.3365 44.2923 49.2893 43.9923 47.542L41.6494 33.8799L51.5748 24.2052C52.7927 23.018 53.261 21.6286 52.8594 20.3933ZM49.4074 21.9813L38.8973 32.2261C38.5314 32.5827 38.3644 33.0971 38.4509 33.6005L40.9317 48.0673C41.004 48.4882 40.9729 48.7272 40.9442 48.8388C40.8334 48.8315 40.5956 48.7887 40.2147 48.5885L27.2227 41.7581C26.9962 41.6392 26.7484 41.5797 26.5001 41.5797C26.2518 41.5797 26.0035 41.6392 25.7775 41.7581L12.7862 48.5881C12.4053 48.7882 12.1672 48.8315 12.0564 48.8388C12.0281 48.7272 11.9965 48.4882 12.0689 48.0673L14.5505 33.6009C14.6366 33.0971 14.4696 32.5827 14.1036 32.2265L3.59314 21.9813C3.28744 21.6832 3.1722 21.4718 3.12934 21.3646C3.22679 21.3031 3.44433 21.1996 3.86689 21.1382L18.3927 19.0274C18.8985 18.9538 19.3356 18.636 19.5617 18.1778L26.0569 5.01636C26.2461 4.63343 26.4115 4.45874 26.5005 4.38475C26.589 4.45874 26.7548 4.63343 26.9437 5.01636L33.4393 18.1778C33.6657 18.636 34.1028 18.9538 34.6087 19.0274L49.1333 21.1382C49.5562 21.1996 49.7734 21.3031 49.8708 21.3646C49.828 21.4714 49.7131 21.6832 49.4074 21.9813Z" fill="#973FDD"/>
</g>
<defs>
<clipPath id="clip0">
<rect width="53" height="53" fill="white"/>
</clipPath>
</defs>
</svg>
