<svg width="49" height="49" viewBox="0 0 49 49" fill="none" xmlns="http://www.w3.org/2000/svg">
<path d="M45.5988 18.5519L41.9344 6.33735C41.3467 4.37843 39.5777 3.0625 37.5336 3.0625H11.4664C9.4222 3.0625 7.65316 4.37843 7.06557 6.33735L3.40118 18.5519C1.44826 19.0809 0 20.8506 0 22.9688V36.75C0 38.4383 1.37421 39.8125 3.06247 39.8125V41.3437C3.06247 43.8769 5.12306 45.9375 7.65621 45.9375H10.7187C13.2518 45.9375 15.3124 43.8769 15.3124 41.3437V39.8125H33.6874V41.3437C33.6874 43.8769 35.748 45.9375 38.2811 45.9375H41.3436C43.8768 45.9375 45.9374 43.8769 45.9374 41.3437V39.8125C47.6256 39.8125 48.9998 38.4383 48.9998 36.75V22.9688C49 20.8506 47.5517 19.0809 45.5988 18.5519ZM9.99939 7.21667C10.1953 6.56319 10.7845 6.12506 11.4663 6.12506H37.5334C38.2153 6.12506 38.8044 6.56319 39.0003 7.21667L42.3479 18.375H6.65174L9.99939 7.21667ZM12.2499 41.3439C12.2499 42.1888 11.5635 42.8752 10.7186 42.8752H7.65612C6.81123 42.8752 6.12484 42.1888 6.12484 41.3439V39.8126H12.2499V41.3439ZM42.8749 41.3439C42.8749 42.1888 42.1885 42.8752 41.3436 42.8752H38.2811C37.4362 42.8752 36.7499 42.1888 36.7499 41.3439V39.8126H42.8749V41.3439ZM3.06238 36.7502V22.9689C3.06238 22.124 3.74876 21.4377 4.59365 21.4377H44.4062C45.2511 21.4377 45.9374 22.124 45.9374 22.9689V36.7502H3.06238Z" fill="#45B1ED"/>
<path d="M10.8984 25.2172C8.36528 25.2172 6.30469 27.2778 6.30469 29.811C6.30469 32.3441 8.36528 34.4047 10.8984 34.4047C13.4316 34.4047 15.4922 32.3441 15.4922 29.811C15.4922 27.2778 13.4316 25.2172 10.8984 25.2172ZM10.8984 31.3422C10.0535 31.3422 9.36715 30.6559 9.36715 29.811C9.36715 28.9661 10.0535 28.2797 10.8984 28.2797C11.7433 28.2797 12.4297 28.9661 12.4297 29.811C12.4297 30.6559 11.7433 31.3422 10.8984 31.3422Z" fill="#45B1ED"/>
<path d="M39.2676 25.2172C36.7344 25.2172 34.6738 27.2778 34.6738 29.811C34.6738 32.3441 36.7344 34.4047 39.2676 34.4047C41.8007 34.4047 43.8613 32.3441 43.8613 29.811C43.8613 27.2778 41.8007 25.2172 39.2676 25.2172ZM39.2676 31.3422C38.4227 31.3422 37.7363 30.6559 37.7363 29.811C37.7363 28.9661 38.4227 28.2797 39.2676 28.2797C40.1125 28.2797 40.7989 28.9661 40.7989 29.811C40.7989 30.6559 40.1125 31.3422 39.2676 31.3422Z" fill="#45B1ED"/>
</svg>
