<svg width="56" height="56" viewBox="0 0 56 56" fill="none" xmlns="http://www.w3.org/2000/svg">
<g clip-path="url(#clip0)">
<path d="M1.58962 13.3606C1.69492 13.357 3.85773 13.284 7.0326 13.3541V6.84472C7.0326 5.88514 7.85196 5.12409 8.8167 5.20337C15.1471 5.73186 23.2011 8.52911 28 13.6312C32.7989 8.52911 40.8529 5.73186 47.1833 5.20337C48.1463 5.12497 48.9674 5.88262 48.9674 6.84472V13.5301C50.7712 13.4621 52.4775 13.4141 54.3041 13.3604C55.2253 13.3313 56 14.0733 56 15.0067V45.0018C56 45.8686 55.3283 46.587 54.4635 46.6451C47.9117 47.0861 36.9369 47.1357 28.6461 50.6719C27.9072 50.9874 27.2439 50.625 27.3537 50.6719C19.0631 47.1358 8.09024 47.0863 1.53626 46.6451C0.671551 46.587 -0.000228882 45.8686 -0.000228882 45.0018V15.0067C-1.14441e-05 14.1193 0.702847 13.3916 1.58962 13.3606ZM10.3267 8.69722V36.9265C15.0764 37.989 21.0957 40.2562 26.3529 45.0635C26.3529 43.6136 26.3529 17.5362 26.3529 16.752C22.7492 12.2555 15.9242 9.54535 10.3267 8.69722ZM45.6733 8.69722C40.0758 9.54535 33.2508 12.2555 29.6471 16.752V45.0635C34.9042 40.2562 40.9236 37.989 45.6733 36.9265V8.69722ZM52.7059 43.4519V16.7029C51.5265 16.7378 50.2651 16.7773 48.9674 16.8268V38.269C48.9674 39.0614 48.403 39.7415 47.6242 39.8877C43.8633 40.5936 38.9726 42.1258 34.4144 45.425C40.9176 43.9665 47.7245 43.732 52.7059 43.4519ZM3.29411 43.4519C8.26735 43.7316 15.0799 43.9658 21.5857 45.425C17.0275 42.1258 12.1367 40.5936 8.37595 39.8877C7.59711 39.7415 7.03271 39.0614 7.03271 38.269V16.6493C5.51676 16.6154 4.22558 16.615 3.29422 16.6234V43.4519H3.29411Z" fill="#F38649"/>
<path d="M33.9183 20.546C35.194 19.6573 37.3933 18.5664 39.7403 18.1698C40.6369 18.0176 41.4872 18.6225 41.6388 19.5194C41.7904 20.4163 41.1861 21.2662 40.2891 21.4178C38.477 21.724 36.7391 22.5955 35.8013 23.2489C35.0552 23.7687 34.0286 23.5855 33.5084 22.839C32.9885 22.0926 33.172 21.066 33.9183 20.546Z" fill="#F38649"/>
<path d="M34.0832 29.8212C35.2569 29.1046 37.5526 27.8469 39.7403 27.4772C40.6369 27.3252 41.4872 27.9298 41.6388 28.8268C41.7904 29.7237 41.1861 30.5736 40.2891 30.7252C38.5849 31.0132 36.5821 32.1549 35.8002 32.6326C35.0229 33.107 34.0097 32.8608 33.5361 32.0854C33.0619 31.3091 33.3069 30.2955 34.0832 29.8212Z" fill="#F38649"/>
<path d="M20.1984 23.249C19.2607 22.5956 17.5227 21.7241 15.7106 21.4179C14.8138 21.2663 14.2095 20.4163 14.3609 19.5195C14.5125 18.6225 15.3628 18.0173 16.2594 18.1699C18.6065 18.5664 20.8058 19.6574 22.0815 20.5461C22.8278 21.066 23.0113 22.0927 22.4914 22.8391C21.9711 23.5858 20.9441 23.7685 20.1984 23.249Z" fill="#F38649"/>
<path d="M16.2611 27.4772C18.4488 27.8468 20.7445 29.1045 21.9182 29.8213C22.6945 30.2954 22.9395 31.3091 22.4654 32.0855C21.9912 32.8617 20.9776 33.1066 20.2012 32.6326C19.4193 32.155 17.4166 31.0132 15.7123 30.7252C14.8154 30.5737 14.2112 29.7238 14.3626 28.8268C14.5142 27.9298 15.3644 27.3247 16.2611 27.4772Z" fill="#F38649"/>
</g>
<defs>
<clipPath id="clip0">
<rect width="56" height="56" transform="matrix(-1 0 0 1 56 0)" fill="white"/>
</clipPath>
</defs>
</svg>
