<svg width="62" height="63" viewBox="0 0 62 63" fill="none" xmlns="http://www.w3.org/2000/svg">
<g clip-path="url(#clip0)">
<path d="M28.608 42.73C29.0815 42.2488 29.0815 41.4702 28.608 40.989C28.1341 40.5093 27.3663 40.5093 26.8919 40.989C26.4189 41.4702 26.4189 42.2488 26.8919 42.73C27.3663 43.2097 28.1341 43.2097 28.608 42.73Z" fill="#65C338"/>
<path d="M22.8652 13.5313C22.8652 20.9925 28.8507 27.0631 36.2078 27.0631C43.5649 27.0631 49.5504 20.9925 49.5504 13.5313C49.5504 6.07015 43.5649 0 36.2078 0C28.8507 0 22.8652 6.07015 22.8652 13.5313ZM47.1247 13.5313C47.1247 19.6361 42.2274 24.6027 36.2078 24.6027C30.1882 24.6027 25.2909 19.6361 25.2909 13.5313C25.2909 7.42704 30.1882 2.46046 36.2078 2.46046C42.2274 2.46046 47.1247 7.42704 47.1247 13.5313Z" fill="#65C338"/>
<path d="M14.0319 62.6361C14.5021 63.1167 15.2675 63.122 15.7438 62.6462L21.6246 56.7707C22.6237 55.7575 22.9275 54.2573 22.4881 52.9533L23.7531 51.7161C24.4342 51.049 25.3309 50.6813 26.2788 50.6813H42.4039C45.2647 50.6813 47.9685 49.5671 50.0184 47.5441C50.1027 47.4609 49.3781 48.3266 61.0192 34.2165C62.7458 32.1449 62.4875 29.0342 60.4428 27.2812C58.411 25.5446 55.3673 25.7941 53.636 27.8301L46.4784 35.2908C45.5746 34.1627 44.1964 33.4595 42.7072 33.4595H29.1812C27.2565 32.6429 25.2143 32.2295 23.1071 32.2295C17.2662 32.2295 12.166 34.9654 9.42896 40.0949C8.27585 39.8733 7.0597 40.2271 6.18479 41.1144L0.414468 46.9836C-0.056636 47.4628 -0.0575839 48.2381 0.412573 48.7188L14.0319 62.6361ZM23.1066 34.6895C24.9645 34.6895 26.7608 35.0687 28.4466 35.8166C28.6002 35.8849 28.7656 35.92 28.9329 35.92H42.7072C44.0224 35.92 45.1334 37.0077 45.1334 38.38C45.1334 39.7368 44.0452 40.8404 42.7072 40.8404H32.8107C32.141 40.8404 31.5979 41.3912 31.5979 42.0704C31.5979 42.75 32.141 43.3004 32.8107 43.3004H42.7072C45.3827 43.3004 47.559 41.0932 47.559 38.38C47.559 38.1637 47.5439 37.9493 47.5164 37.7368C54.4403 30.5189 55.4166 29.5047 55.4583 29.4542C56.3228 28.4194 57.8575 28.2882 58.8783 29.161C59.9002 30.0373 60.0296 31.5927 59.1627 32.6333L48.2832 45.8233C46.6946 47.3701 44.6087 48.2213 42.4039 48.2213H26.2788C24.6986 48.2213 23.2028 48.8341 22.0682 49.9459L21.0374 50.9548L11.5347 41.3182C13.7556 37.0928 17.9231 34.6895 23.1066 34.6895ZM7.90143 42.8529C8.30144 42.4472 8.91568 42.3742 9.40337 42.6799C9.61333 42.8096 9.01047 42.253 19.9094 53.2907C20.3942 53.7824 20.3682 54.5659 19.916 55.0245L14.9026 60.0333L2.98422 47.8541L7.90143 42.8529Z" fill="#65C338"/>
<path d="M34.7517 6.15088V7.59236C33.3398 8.09992 32.3256 9.46738 32.3256 11.0713C32.3256 13.1059 33.9579 14.7618 35.9646 14.7618C36.6333 14.7618 37.1774 15.3135 37.1774 15.9917C37.1774 16.6699 36.6333 17.2217 35.9646 17.2217C35.4465 17.2217 34.8868 16.8915 34.3896 16.2912C33.9583 15.7711 33.1934 15.7043 32.6806 16.1412C32.1678 16.5786 32.1014 17.3544 32.5327 17.8745C33.1811 18.6565 33.9436 19.2015 34.7517 19.4765V20.9122C34.7517 21.5918 35.2949 22.1422 35.9646 22.1422C36.6342 22.1422 37.1774 21.5918 37.1774 20.9122V19.4707C38.5893 18.9627 39.6035 17.5952 39.6035 15.9917C39.6035 13.9567 37.9713 12.3013 35.9646 12.3013C35.2958 12.3013 34.7517 11.7495 34.7517 11.0713C34.7517 10.3931 35.2958 9.84085 35.9646 9.84085C36.3944 9.84085 36.848 10.0634 37.2764 10.484C37.758 10.9564 38.5258 10.9435 38.9917 10.4556C39.4576 9.96726 39.4448 9.1886 38.9637 8.71612C38.348 8.11194 37.7319 7.7702 37.1774 7.5837V6.15088C37.1774 5.47124 36.6342 4.92041 35.9646 4.92041C35.2949 4.92041 34.7517 5.47124 34.7517 6.15088Z" fill="#65C338"/>
</g>
<defs>
<clipPath id="clip0">
<rect width="62" height="63" fill="white"/>
</clipPath>
</defs>
</svg>
