<svg width="53" height="55" viewBox="0 0 53 55" fill="none" xmlns="http://www.w3.org/2000/svg">
<path d="M13.9746 0C10.5215 0 7.76367 3.00846 7.76367 6.55273C7.76367 10.1067 10.5499 12.998 13.9746 12.998C17.3993 12.998 20.1855 10.1067 20.1855 6.55273C20.1855 3.00566 17.4242 0 13.9746 0ZM13.9746 9.77539C12.2623 9.77539 10.8691 8.32971 10.8691 6.55273C10.8691 4.74762 12.2912 3.22266 13.9746 3.22266C15.658 3.22266 17.0801 4.74762 17.0801 6.55273C17.0801 8.32971 15.687 9.77539 13.9746 9.77539Z" fill="#D56DE6"/>
<path d="M48.3418 0H26.3965C23.828 0 21.7383 2.16853 21.7383 4.83398V15.8302L20.3736 14.4142C19.4938 13.501 18.324 12.998 17.0801 12.998H13.9746C13.3164 12.998 8.42193 12.998 7.76367 12.998C3.48278 12.998 0 16.6123 0 21.0547C0 21.9709 0 29.3992 0 30.7227C0 33.3881 2.08967 35.5566 4.6582 35.5566C5.20238 35.5566 5.72514 35.4593 6.21094 35.2806V50.166C6.21094 52.8315 8.30061 55 10.8691 55C12.0611 55 13.1499 54.533 13.9746 53.7662C14.7993 54.533 15.8881 55 17.0801 55C19.6486 55 21.7383 52.8315 21.7383 50.166V28.8368C22.9255 29.2713 24.2407 29.1876 25.3744 28.6014L30.6024 25.8887H48.3418C50.9103 25.8887 53 23.7201 53 21.0547V4.83398C53 2.16853 50.9103 0 48.3418 0ZM30.1964 22.4962L23.9874 25.7179C23.4049 26.0191 22.6814 25.923 22.1931 25.4164L21.2836 24.4725C20.3234 23.4761 18.6371 24.1538 18.6329 25.6069C18.6329 25.6085 18.6327 25.61 18.6327 25.6116V50.166C18.6327 51.0545 17.9362 51.7773 17.08 51.7773C16.2238 51.7773 15.5272 51.0545 15.5272 50.166V33.9453C15.5272 33.0554 14.832 32.334 13.9745 32.334C13.117 32.334 12.4218 33.0554 12.4218 33.9453V50.166C12.4218 51.0545 11.7252 51.7773 10.869 51.7773C10.0129 51.7773 9.3163 51.0545 9.3163 50.166V30.7227C9.3163 29.5077 9.3163 22.0477 9.3163 21.0547C9.3163 20.1648 8.62109 19.4434 7.76357 19.4434C6.90604 19.4434 6.21083 20.1648 6.21083 21.0547C6.21083 21.9709 6.21083 29.3992 6.21083 30.7227C6.21083 31.6111 5.51428 32.334 4.6581 32.334C3.80192 32.334 3.10537 31.6111 3.10537 30.7227C3.10547 29.5077 3.10547 22.0477 3.10547 21.0547C3.10547 18.3892 5.19514 16.2207 7.76367 16.2207C8.93443 16.2207 16.1232 16.2207 17.0801 16.2207C17.4946 16.2207 17.8844 16.3884 18.1778 16.6929L22.8056 21.4954C23.2781 21.9858 24.0002 22.1073 24.5979 21.7973L28.8078 19.6129C29.5783 19.2127 30.507 19.5362 30.8909 20.3339C31.275 21.1311 30.9646 22.0976 30.1964 22.4962ZM49.8945 21.0547C49.8945 21.9432 49.198 22.666 48.3418 22.666H33.893C33.9024 22.6384 33.9128 22.6113 33.9217 22.5835C34.1453 21.8874 34.2123 21.1636 34.1268 20.4566L42.6182 16.0507C43.3853 15.6527 43.6961 14.6848 43.3126 13.8888C42.9291 13.0928 41.9963 12.7701 41.2293 13.1682L32.7385 17.5739C31.3781 16.2083 29.259 15.7749 27.4185 16.7307L24.8438 18.0667V4.83398C24.8438 3.9455 25.5403 3.22266 26.3965 3.22266H48.3418C49.198 3.22266 49.8945 3.9455 49.8945 4.83398V21.0547Z" fill="#D56DE6"/>
</svg>
