<svg width="70" height="70" viewBox="0 0 70 70" fill="none" xmlns="http://www.w3.org/2000/svg">
<g clip-path="url(#clip0)">
<path d="M35.1039 14.2119C29.8143 14.2119 25.5117 18.7578 25.5117 24.3468C25.5117 29.9345 29.8143 34.4804 35.1039 34.4804C40.3936 34.4804 44.6961 29.9345 44.6961 24.3468C44.6961 18.7578 40.3936 14.2119 35.1039 14.2119ZM35.1039 30.3789C32.0756 30.3789 29.6133 27.6732 29.6133 24.3468C29.6133 21.0205 32.0756 18.3134 35.1039 18.3134C38.1322 18.3134 40.5945 21.0205 40.5945 24.3468C40.5945 27.6732 38.1322 30.3789 35.1039 30.3789Z" fill="#F1DA02"/>
<path d="M55.529 15.575H55.4634C50.8751 15.6133 47.1755 19.5795 47.2152 24.4152C47.2548 29.2277 50.9831 33.1174 55.5427 33.1174H55.6083C57.8573 33.0982 59.9573 32.1508 61.52 30.4486C63.0458 28.7848 63.8757 26.5931 63.8566 24.2771C63.8169 19.4646 60.0886 15.575 55.529 15.575ZM58.4972 27.6746C57.7124 28.5305 56.6747 29.0062 55.5741 29.0158H55.5427C53.2308 29.0158 51.3372 26.9445 51.3167 24.381C51.2948 21.8066 53.1706 19.6957 55.4976 19.6765H55.529C57.8409 19.6765 59.7345 21.7492 59.755 24.3113C59.7659 25.5855 59.3189 26.7805 58.4972 27.6746Z" fill="#F1DA02"/>
<path d="M57.6543 34.1428H53.416C50.1553 34.1428 47.1857 35.4143 44.9777 37.4869C42.8285 36.2154 40.3252 35.4854 37.6523 35.4854H32.5541C29.8293 35.4854 27.2781 36.2442 25.1029 37.5608C22.8854 35.4444 19.8844 34.1428 16.584 34.1428H12.3457C5.53848 34.1428 0 39.6813 0 46.4885V51.7152H18.1207V55.7881H52.0857V51.7152H70V46.4885C70 39.6813 64.4615 34.1428 57.6543 34.1428ZM18.3053 47.6137H4.10156V46.4885C4.10156 41.9426 7.79981 38.2444 12.3457 38.2444H16.584C18.6074 38.2444 20.4627 38.9772 21.8996 40.1926C20.0443 42.2215 18.7605 44.7809 18.3053 47.6137ZM47.9842 51.6865H41.0703H28.9297H22.2223V49.9188C22.2223 49.1272 22.3125 48.3547 22.482 47.6137C22.8143 46.159 23.4555 44.8192 24.3318 43.6694C25.2027 42.525 26.3074 41.568 27.5748 40.8694C29.0527 40.0518 30.7508 39.5869 32.5541 39.5869H37.6523C39.3928 39.5869 41.032 40.019 42.4717 40.7819C43.7377 41.4518 44.8492 42.3787 45.7352 43.4916C46.684 44.6811 47.3744 46.0824 47.7244 47.6137C47.8939 48.3547 47.9842 49.1272 47.9842 49.9188V51.6865ZM65.8984 47.6137H51.9012C51.4377 44.7358 50.1197 42.1395 48.218 40.0942C49.6371 38.9375 51.4473 38.2444 53.416 38.2444H57.6543C62.2002 38.2444 65.8984 41.9426 65.8984 46.4885V47.6137Z" fill="#F1DA02"/>
<path d="M14.4568 15.575H14.3911C9.80286 15.6133 6.10325 19.5795 6.14289 24.4152C6.18254 29.2277 9.91086 33.1174 14.4704 33.1174H14.5361C16.7851 33.0982 18.8851 32.1508 20.4478 30.4486C21.9736 28.7848 22.8034 26.5931 22.7843 24.2771C22.7447 19.4646 19.0163 15.575 14.4568 15.575ZM17.4249 27.6746C16.6402 28.5305 15.6025 29.0062 14.5019 29.0158H14.4704C12.1585 29.0158 10.265 26.9445 10.2445 24.381C10.2226 21.8066 12.0984 19.6957 14.4253 19.6765H14.4568C16.7687 19.6765 18.6622 21.7492 18.6827 24.3113C18.6937 25.5855 18.2466 26.7805 17.4249 27.6746Z" fill="#F1DA02"/>
</g>
<defs>
<clipPath id="clip0">
<rect width="70" height="70" fill="white"/>
</clipPath>
</defs>
</svg>
