<svg width="16" height="16" viewBox="0 0 16 16" fill="none" xmlns="http://www.w3.org/2000/svg">
<g clip-path="url(#clip0)">
<path d="M0.899383 6.74515L0.874407 6.75062H11.5809L8.21515 3.37748C8.05034 3.21279 7.95993 2.9897 7.95993 2.75556C7.95993 2.52141 8.05034 2.29988 8.21515 2.13481L8.73886 1.61084C8.90354 1.44616 9.12299 1.3551 9.35701 1.3551C9.59115 1.3551 9.81073 1.44551 9.97541 1.61019L15.7449 7.37917C15.9102 7.5445 16.0006 7.76473 16 7.99901C16.0006 8.23458 15.9102 8.45494 15.7449 8.62001L9.97541 14.3895C9.81073 14.5541 9.59128 14.6446 9.35701 14.6446C9.12299 14.6446 8.90354 14.5539 8.73886 14.3895L8.21515 13.8655C8.05034 13.7011 7.95993 13.4815 7.95993 13.2474C7.95993 13.0134 8.05034 12.8054 8.21515 12.6408L11.6189 9.24883H0.887415C0.405203 9.24883 0 8.83322 0 8.35127V7.61019C0 7.12824 0.417171 6.74515 0.899383 6.74515Z" fill="#FFCA41"/>
</g>
<defs>
<clipPath id="clip0">
<rect width="16" height="16" transform="matrix(-1 0 0 1 16 0)" fill="white"/>
</clipPath>
</defs>
</svg>
