<svg width="16" height="14" viewBox="0 0 16 14" fill="none" xmlns="http://www.w3.org/2000/svg">
<path d="M0.89938 8.25497L0.874404 8.24951L11.5809 8.24951L8.21515 11.6226C8.05034 11.7873 7.95993 12.0104 7.95993 12.2446C7.95993 12.4787 8.05034 12.7002 8.21515 12.8653L8.73886 13.3893C8.90354 13.554 9.12299 13.645 9.35701 13.645C9.59115 13.645 9.81073 13.5546 9.97541 13.3899L15.7449 7.62095C15.9102 7.45562 16.0006 7.23539 16 7.00112C16.0006 6.76554 15.9102 6.54518 15.7449 6.38011L9.97541 0.610614C9.81073 0.446062 9.59128 0.355526 9.357 0.355526C9.12299 0.355526 8.90354 0.446191 8.73886 0.610614L8.21515 1.13458C8.05034 1.29901 7.95993 1.51858 7.95993 1.75273C7.95993 1.98674 8.05034 2.19474 8.21515 2.3593L11.6189 5.7513L0.887412 5.7513C0.405201 5.7513 -2.56111e-06 6.16691 -2.51897e-06 6.64886L-2.45419e-06 7.38993C-2.41205e-06 7.87188 0.417169 8.25497 0.89938 8.25497Z" fill="#FF6E41"/>
</svg>
