<svg width="22" height="22" viewBox="0 0 22 22" fill="none" xmlns="http://www.w3.org/2000/svg">
<g opacity="0.5" clip-path="url(#clip0)">
<path d="M20.7843 0.000976562H1.21421C0.544077 0.000976562 0 0.543976 0 1.21521V20.7857C0 21.4569 0.544077 22.0006 1.21421 22.0006H11.7502V13.4811H8.88346V10.1604H11.7502V7.71164C11.7502 4.87059 13.4849 3.32273 16.0199 3.32273C17.2352 3.32273 18.2773 3.41365 18.5812 3.45314V6.42279L16.8229 6.42351C15.4446 6.42351 15.1787 7.07881 15.1787 8.03983V10.1593H18.4671L18.0371 13.4796H15.1784V21.9995H20.784C21.4548 21.9995 21.9993 21.4551 21.9993 20.7857V1.21448C21.9989 0.543976 21.4552 0.000976562 20.7843 0.000976562Z" fill="#FFCA41"/>
</g>
<defs>
<clipPath id="clip0">
<rect width="22" height="22" fill="white"/>
</clipPath>
</defs>
</svg>
