<svg width="27" height="27" viewBox="0 0 27 27" fill="none" xmlns="http://www.w3.org/2000/svg">
<path d="M22.9394 23.1431C25.5579 20.5791 26.9999 17.1547 26.9999 13.5001C26.9999 9.84495 25.5579 6.41983 22.9394 3.85675C20.3993 1.3701 17.0468 0 13.5001 0C9.95358 0 6.60103 1.3701 4.06103 3.85675C1.44196 6.42031 0 9.84495 0 13.5001C0 17.154 1.44196 20.5791 4.06103 23.1431C4.98172 24.0441 6.01896 24.806 7.14393 25.4082C7.14441 25.4087 7.14561 25.4092 7.14657 25.4097C7.14994 25.4116 7.15354 25.4121 7.15691 25.4137C7.16075 25.4157 7.16412 25.4181 7.16796 25.4202C7.30471 25.4933 7.44313 25.5642 7.58204 25.6322C7.82429 25.7512 8.06534 25.8605 8.3023 25.9593C8.30422 25.96 8.30614 25.9612 8.30807 25.9619C8.30807 25.9622 8.30831 25.9624 8.30831 25.9624H8.30903C8.30975 25.9627 8.31047 25.9631 8.31119 25.9634C8.33859 25.9749 8.37175 25.9867 8.42078 26.0037L8.45058 26.0146C8.45106 26.0148 8.45154 26.0146 8.45202 26.0148C8.61496 26.0807 8.76829 26.1403 8.91417 26.1948C8.93099 26.2008 8.94493 26.2047 8.96151 26.2107C9.15906 26.283 9.34748 26.3479 9.52892 26.4041C9.59862 26.4253 9.67072 26.4431 9.74257 26.4601L9.85697 26.4892H9.85793L9.86394 26.4909C10.1704 26.5767 10.4765 26.661 10.7906 26.7257C10.7964 26.7266 10.8017 26.7286 10.8072 26.7298C10.8666 26.7418 10.9274 26.7488 10.9875 26.7584C11.0735 26.7721 11.1588 26.7877 11.2451 26.7995L11.2754 26.8038L11.6262 26.8576C11.7938 26.8857 11.9613 26.9139 12.1321 26.9309C12.5892 26.9768 13.0495 26.9999 13.5001 26.9999C13.9509 26.9999 14.4114 26.9768 14.8682 26.9309C14.8685 26.9307 14.8687 26.9307 14.869 26.9307C15.0355 26.9136 15.1994 26.8867 15.3628 26.8593L15.7599 26.7985C15.906 26.7786 16.0516 26.7584 16.1939 26.7298C16.5157 26.6644 16.8288 26.5772 17.142 26.4892L17.2573 26.4601C17.3292 26.4431 17.4006 26.426 17.4693 26.4046C17.6265 26.3561 17.787 26.3022 17.9586 26.2407C17.9677 26.2373 17.9766 26.2345 17.986 26.2311C18.1689 26.165 18.3655 26.0895 18.5873 26.0009C18.6212 25.9893 18.6558 25.9773 18.6889 25.9634C18.6892 25.9634 18.6892 25.9631 18.6894 25.9631C18.6901 25.9629 18.6909 25.9627 18.6916 25.9624C18.9165 25.8682 19.1424 25.7637 19.37 25.6534C19.3888 25.6442 19.4073 25.637 19.426 25.6279C19.5255 25.5788 19.6243 25.5274 19.7228 25.476C19.767 25.4532 19.8101 25.4332 19.8545 25.4097C19.9793 25.3428 20.0987 25.2667 20.2213 25.196C20.9288 24.7882 21.6029 24.3234 22.2277 23.7925C22.4722 23.5849 22.7096 23.3683 22.9394 23.1431ZM21.3609 23.0441C21.229 23.153 21.0946 23.259 20.9583 23.3623C20.8704 23.4291 20.7822 23.4955 20.6923 23.5599C20.5601 23.6548 20.4251 23.7452 20.2893 23.8346C20.1951 23.8968 20.1018 23.9605 20.0055 24.0203C19.8415 24.122 19.6738 24.2174 19.5053 24.3114C19.438 24.3489 19.3734 24.3895 19.3054 24.4258C19.3049 24.4262 19.3042 24.426 19.3035 24.4265C19.2857 24.4359 19.2679 24.4445 19.2501 24.4539C19.1237 24.5207 18.9951 24.5849 18.8649 24.6476C18.7392 24.7086 18.613 24.7639 18.4868 24.8199C18.3982 24.8588 18.3131 24.8992 18.2208 24.9374L18.1319 24.9699C18.1314 24.9699 18.1311 24.9703 18.1307 24.9703L18.1297 24.9708C17.7534 25.123 17.4385 25.2366 17.1386 25.3289C17.1384 25.3292 17.1381 25.3294 17.1376 25.3294V25.3296C17.0915 25.3438 17.0442 25.3549 16.9971 25.3659C16.9497 25.3775 16.9024 25.3883 16.8553 25.401C16.8764 25.3791 16.8966 25.3541 16.9175 25.332C16.9785 25.2676 17.0384 25.1999 17.0982 25.1321C17.1631 25.0585 17.2275 24.9843 17.291 24.9069C17.3489 24.8362 17.4058 24.7632 17.4628 24.6892C17.526 24.6067 17.5887 24.5226 17.6507 24.4361C17.7051 24.3602 17.7586 24.2825 17.812 24.2032C17.874 24.1112 17.935 24.0167 17.9954 23.9204C18.0461 23.8396 18.0963 23.7581 18.1456 23.6745C18.2061 23.5724 18.2653 23.4673 18.3239 23.3609C18.3708 23.276 18.4174 23.191 18.463 23.1035C18.5217 22.991 18.5786 22.8752 18.6354 22.7584C18.6781 22.6699 18.7211 22.5822 18.763 22.4916C18.8199 22.3671 18.875 22.2386 18.93 22.1097C18.968 22.0201 19.0067 21.9321 19.0437 21.8403C19.0994 21.7024 19.1525 21.5599 19.2056 21.4171C19.2391 21.3275 19.2732 21.24 19.3056 21.1487C19.3124 21.1297 19.3196 21.1119 19.3263 21.0929C19.4066 21.1357 19.4892 21.1751 19.5683 21.2193C19.6423 21.2609 19.7163 21.3027 19.7892 21.3455C20.0482 21.4979 20.3025 21.656 20.5479 21.8247C20.5563 21.8307 20.5654 21.8358 20.5738 21.8418C20.8262 22.0163 21.0682 22.2023 21.3049 22.3938C21.3705 22.4469 21.4347 22.5015 21.4991 22.5558C21.5709 22.6166 21.6382 22.6817 21.7084 22.744C21.6687 22.7793 21.6305 22.8168 21.5904 22.8516C21.5149 22.917 21.438 22.9807 21.3609 23.0441ZM6.75388 23.8636C6.59911 23.7627 6.44578 23.6596 6.29558 23.5515C6.21363 23.4926 6.13312 23.4318 6.05261 23.3707C5.9125 23.2648 5.77431 23.1556 5.63877 23.0437C5.56114 22.9797 5.48376 22.9158 5.40781 22.8499C5.36816 22.8156 5.33091 22.7788 5.29198 22.7442C5.36191 22.6822 5.42872 22.6173 5.50034 22.557C5.56547 22.502 5.63036 22.4467 5.69669 22.3928C5.93269 22.202 6.17397 22.0165 6.42535 21.8425C6.43593 21.8351 6.44746 21.8286 6.45804 21.8211C6.70149 21.6538 6.95335 21.4969 7.21026 21.346C7.28332 21.303 7.35758 21.2612 7.4316 21.2196C7.51067 21.1751 7.59358 21.1359 7.67361 21.0929C7.68034 21.1119 7.68755 21.1295 7.69427 21.1482C7.72768 21.2426 7.76325 21.3333 7.79762 21.4258C7.84929 21.564 7.90047 21.7022 7.95455 21.836C7.99396 21.9341 8.03554 22.0285 8.07639 22.1242C8.1283 22.246 8.18045 22.3679 8.23453 22.4856C8.27899 22.5827 8.32513 22.6767 8.37103 22.7711C8.42463 22.8812 8.47822 22.9908 8.53349 23.097C8.5818 23.1898 8.63131 23.2799 8.68081 23.3695C8.73705 23.4714 8.79377 23.5721 8.85168 23.6699C8.90287 23.7567 8.95478 23.8411 9.00742 23.9247C9.0663 24.0187 9.1259 24.1107 9.18622 24.2006C9.24053 24.2813 9.29533 24.3604 9.3506 24.4378C9.41188 24.5233 9.47365 24.6063 9.53637 24.688C9.59357 24.7625 9.65101 24.8362 9.70941 24.9074C9.77285 24.9848 9.83702 25.0588 9.90167 25.1321C9.96151 25.1999 10.0214 25.2674 10.0822 25.3316C10.1033 25.3539 10.1235 25.3791 10.1446 25.401C10.0975 25.3883 10.0502 25.3767 10.0031 25.3659C9.95646 25.3549 9.90912 25.3438 9.86394 25.3296C9.86322 25.3294 9.8625 25.3292 9.86177 25.3289C9.69667 25.278 9.52436 25.2188 9.34267 25.1523C9.19319 25.0975 9.03866 25.0386 8.86827 24.9699L8.73969 24.923C8.73945 24.923 8.73897 24.923 8.73873 24.9228C8.53734 24.8384 8.3357 24.7452 8.13527 24.6481C8.00357 24.5844 7.87067 24.5178 7.73633 24.4474C7.72383 24.4409 7.71134 24.4349 7.6986 24.4282C7.69812 24.4274 7.69764 24.4274 7.69644 24.427C7.69596 24.4267 7.69524 24.4267 7.69476 24.4265C7.69043 24.4243 7.68658 24.4224 7.68226 24.4202C7.67986 24.419 7.67841 24.4181 7.67625 24.4171C7.43761 24.2893 7.20425 24.1518 6.97474 24.0086C6.9 23.9622 6.82742 23.9119 6.75388 23.8636ZM8.81251 6.07111C8.85457 5.95648 8.89711 5.8428 8.94061 5.73153C8.97233 5.65102 9.00453 5.57148 9.03698 5.49265C9.08168 5.38402 9.12758 5.2778 9.17396 5.17278C9.20689 5.09779 9.24005 5.02257 9.27394 4.94951C9.32417 4.84089 9.37584 4.73586 9.42799 4.63156C9.45947 4.56787 9.49071 4.50275 9.52291 4.4405C9.59237 4.30688 9.66351 4.17807 9.7356 4.0519C9.75219 4.02306 9.76781 3.99229 9.78415 3.96394C9.87211 3.81325 9.96223 3.66858 10.0538 3.52871C10.0865 3.47872 10.1201 3.43233 10.1533 3.38379C10.2148 3.29343 10.2768 3.20403 10.3398 3.11847C10.3782 3.06632 10.4176 3.01657 10.4568 2.96634C10.5159 2.89016 10.5755 2.81542 10.6359 2.74356C10.6772 2.69453 10.7188 2.64647 10.7606 2.59937C10.8214 2.53087 10.8832 2.46478 10.9449 2.40062C10.9863 2.35784 11.0274 2.31506 11.0689 2.27444C11.136 2.20908 11.2038 2.14779 11.272 2.08771C11.3093 2.05455 11.3463 2.01994 11.3838 1.9887C11.4732 1.9142 11.5635 1.84498 11.6546 1.77985C11.6717 1.7676 11.6883 1.75318 11.7053 1.7414C11.8137 1.66594 11.923 1.59793 12.0331 1.53592C12.0651 1.5179 12.0975 1.50348 12.1297 1.48666C12.2088 1.44508 12.2879 1.40543 12.3679 1.37082C12.4083 1.35352 12.4489 1.33886 12.4895 1.32323C12.5623 1.29536 12.6351 1.2694 12.7082 1.24753C12.7512 1.23455 12.7942 1.22302 12.8372 1.2122C12.8707 1.20379 12.9041 1.19851 12.9375 1.1913V7.37729C12.9226 7.37656 12.9074 7.37656 12.8925 7.37584C12.5758 7.36022 12.2609 7.33018 11.9476 7.29005C11.8783 7.28115 11.8091 7.27106 11.7399 7.26097C11.4227 7.21458 11.1067 7.15955 10.7935 7.08817C10.7719 7.08313 10.7505 7.07664 10.7289 7.07159C10.4309 7.0019 10.1353 6.91826 9.84183 6.82574C9.7779 6.80555 9.71373 6.78656 9.65029 6.76517C9.35036 6.66544 9.05308 6.55417 8.75868 6.43064C8.73753 6.42175 8.71662 6.4119 8.69547 6.40276C8.70509 6.3744 8.71422 6.3446 8.72407 6.31625C8.75291 6.23333 8.78271 6.15234 8.81251 6.07111ZM14.2919 1.24753C14.365 1.2694 14.4376 1.29536 14.5104 1.32323C14.551 1.33886 14.5919 1.35352 14.6322 1.37106C14.712 1.40543 14.7911 1.44508 14.8702 1.48642C14.9024 1.50348 14.9348 1.5179 14.9668 1.53592C15.0768 1.59793 15.1862 1.66594 15.2946 1.7414C15.3119 1.75342 15.3285 1.76784 15.3458 1.78009C15.4364 1.84522 15.5267 1.91396 15.6159 1.98846C15.6536 2.01994 15.6909 2.05479 15.7284 2.08795C15.7964 2.14803 15.8642 2.20932 15.931 2.27444C15.9725 2.31506 16.0136 2.35784 16.055 2.40062C16.117 2.46478 16.1785 2.53087 16.2395 2.59937C16.2814 2.64647 16.3229 2.69453 16.3643 2.74356C16.4244 2.81542 16.484 2.88992 16.5428 2.96586C16.5822 3.01657 16.6217 3.06656 16.6604 3.11895C16.7236 3.20427 16.7856 3.29391 16.8471 3.38427C16.88 3.43233 16.9134 3.47872 16.9459 3.52822C17.0374 3.66833 17.1278 3.81301 17.2157 3.96394C17.2326 3.99277 17.2482 4.02402 17.265 4.0531C17.3366 4.17879 17.4075 4.30712 17.4767 4.44002C17.5094 4.50275 17.5407 4.56836 17.5726 4.63276C17.6245 4.73682 17.676 4.84137 17.726 4.94951C17.7598 5.02257 17.793 5.09779 17.8262 5.17278C17.8726 5.27756 17.9182 5.38378 17.9629 5.49217C17.9956 5.57148 18.0278 5.6515 18.0598 5.73273C18.103 5.8428 18.1451 5.95528 18.1867 6.06895C18.2167 6.15138 18.2472 6.23333 18.2763 6.31745C18.2862 6.34533 18.2951 6.37465 18.3047 6.403C18.2838 6.41166 18.2633 6.42151 18.2424 6.43016C17.9473 6.55417 17.6491 6.66568 17.3484 6.7659C17.2859 6.78656 17.2232 6.80531 17.1605 6.82502C16.8656 6.91802 16.5688 7.00214 16.2693 7.07207C16.2484 7.07712 16.228 7.08337 16.2073 7.08793C15.894 7.15955 15.5777 7.21458 15.2597 7.26097C15.191 7.27106 15.122 7.28115 15.0528 7.29005C14.7394 7.33018 14.4246 7.36022 14.1076 7.37584C14.0925 7.3768 14.0773 7.37656 14.0624 7.37729V1.1913C14.0958 1.19851 14.1295 1.20379 14.1626 1.2122C14.2059 1.22302 14.2489 1.23455 14.2919 1.24753ZM18.1862 20.9319C18.1448 21.0449 18.103 21.1566 18.06 21.2664C18.028 21.3479 17.9956 21.4284 17.9627 21.508C17.918 21.6161 17.8726 21.7221 17.8262 21.8266C17.793 21.9016 17.7601 21.9771 17.726 22.0501C17.676 22.1583 17.6245 22.2631 17.5726 22.3671C17.5407 22.4313 17.5092 22.4972 17.4765 22.5599C17.4075 22.6928 17.3369 22.8209 17.265 22.9466C17.2484 22.9756 17.2326 23.0071 17.2157 23.0357C17.1275 23.1869 17.0374 23.3316 16.9459 23.4717C16.9134 23.5212 16.88 23.5673 16.8473 23.6154C16.7856 23.706 16.7236 23.7956 16.6604 23.8812C16.6217 23.9333 16.5825 23.9831 16.5433 24.0336C16.484 24.11 16.4241 24.185 16.3638 24.2568C16.3227 24.3056 16.2816 24.3532 16.24 24.3998C16.1787 24.469 16.1165 24.5356 16.054 24.6002C16.0134 24.6425 15.9728 24.6848 15.9314 24.725C15.8642 24.7906 15.7961 24.8523 15.7279 24.9127C15.6904 24.9456 15.6534 24.9802 15.6159 25.0114C15.526 25.0864 15.4352 25.1559 15.3438 25.2215C15.3273 25.2333 15.3112 25.247 15.2948 25.2585C15.1864 25.334 15.0768 25.4022 14.9665 25.4642C14.9351 25.482 14.9031 25.4962 14.8714 25.5128C14.7918 25.5546 14.7123 25.5945 14.632 25.6293C14.5919 25.6466 14.5515 25.661 14.5111 25.6764C14.4381 25.7045 14.365 25.7307 14.2915 25.7526C14.2487 25.7656 14.2059 25.7769 14.1631 25.7877C14.1297 25.7961 14.0961 25.8014 14.0624 25.8086V19.6224C14.0778 19.6231 14.0932 19.6229 14.1086 19.6236C14.4248 19.6394 14.7394 19.6692 15.0521 19.7094C15.1218 19.7183 15.1912 19.7284 15.2607 19.7384C15.5782 19.7848 15.8942 19.8399 16.2073 19.9115C16.228 19.9163 16.2487 19.9225 16.2693 19.9273C16.569 19.9973 16.8658 20.0814 17.1607 20.1744C17.2232 20.1941 17.2857 20.2129 17.3479 20.2335C17.6488 20.3335 17.9471 20.4452 18.2424 20.5693C18.2633 20.5779 18.2838 20.5878 18.3047 20.5967C18.2951 20.6245 18.2862 20.6536 18.2765 20.6812C18.2472 20.7661 18.2167 20.8488 18.1862 20.9319ZM12.8368 25.7877C12.794 25.7769 12.7512 25.7656 12.7087 25.7526C12.6351 25.7305 12.5618 25.7045 12.4888 25.6764C12.4486 25.661 12.4083 25.6466 12.3681 25.6293C12.2879 25.5945 12.2081 25.5546 12.1283 25.5128C12.0968 25.4962 12.0648 25.482 12.0336 25.4642C11.923 25.4022 11.8137 25.334 11.7051 25.2585C11.6887 25.247 11.6729 25.2335 11.6565 25.2217C11.565 25.1559 11.4739 25.0864 11.3838 25.0114C11.3465 24.9802 11.3097 24.9458 11.2727 24.9129C11.2042 24.8526 11.136 24.7908 11.0685 24.725C11.0274 24.6848 10.9867 24.6425 10.9459 24.6002C10.8834 24.5356 10.8214 24.469 10.7599 24.3998C10.7185 24.3532 10.6772 24.3056 10.6363 24.2568C10.5755 24.1847 10.5157 24.1097 10.4563 24.0331C10.4174 23.9831 10.3782 23.9336 10.3398 23.8814C10.2766 23.7961 10.2148 23.7065 10.153 23.6159C10.1201 23.5676 10.0865 23.5212 10.0538 23.4712C9.96223 23.3313 9.87211 23.1866 9.78415 23.0357C9.76757 23.0074 9.75195 22.9766 9.7356 22.9478C9.66351 22.8216 9.59237 22.6928 9.52291 22.5594C9.49071 22.4972 9.45971 22.432 9.42799 22.3683C9.37584 22.2638 9.32417 22.1588 9.27394 22.0501C9.24005 21.9771 9.20689 21.9016 9.17372 21.8266C9.12758 21.7219 9.08192 21.6159 9.03722 21.5077C9.00453 21.4284 8.97233 21.3484 8.94036 21.2674C8.89711 21.1569 8.85481 21.0439 8.81299 20.9297C8.78295 20.8478 8.75291 20.7661 8.72383 20.6824C8.71398 20.6543 8.70485 20.625 8.69523 20.5967C8.71638 20.5878 8.73753 20.5777 8.75868 20.5688C9.05332 20.4452 9.3506 20.3337 9.65053 20.234C9.71397 20.2129 9.7779 20.1939 9.84159 20.1739C10.135 20.0814 10.4306 19.9978 10.7286 19.9278C10.7505 19.9228 10.7719 19.9163 10.7935 19.9112C11.1064 19.8399 11.422 19.7848 11.7392 19.7387C11.8089 19.7284 11.8786 19.7183 11.9485 19.7094C12.2612 19.6692 12.5753 19.6394 12.8913 19.6236C12.9067 19.6229 12.9221 19.6231 12.9375 19.6224V25.8086C12.9038 25.8016 12.8702 25.7961 12.8368 25.7877ZM8.10211 18.4188C8.01199 17.9956 7.9346 17.5635 7.86827 17.1247C7.85722 17.0516 7.84159 16.9812 7.83126 16.9076C7.75892 16.396 7.70533 15.8745 7.66592 15.3479C7.65414 15.1893 7.6503 15.0281 7.6414 14.8682C7.62674 14.601 7.61953 14.3321 7.61329 14.0624H12.9375V18.4933C12.9149 18.4943 12.8928 18.4981 12.8702 18.4991C12.5306 18.5149 12.1929 18.5448 11.8572 18.5866C11.7827 18.5957 11.7084 18.6072 11.6339 18.6176C11.3112 18.6632 10.9899 18.7183 10.6712 18.7877C10.6457 18.7932 10.6198 18.7971 10.594 18.8029C10.2576 18.8783 9.92426 18.9711 9.59309 19.073C9.51859 19.0958 9.44409 19.1189 9.37007 19.1432C9.04154 19.2506 8.71518 19.3681 8.39266 19.5012C8.38713 19.5037 8.38161 19.5051 8.37632 19.5073C8.3208 19.3039 8.26409 19.1018 8.21458 18.8935C8.17685 18.7353 8.13647 18.5796 8.10211 18.4188ZM7.66592 11.6524C7.70533 11.1256 7.75892 10.6039 7.83126 10.0918C7.84159 10.0197 7.85674 9.95045 7.86755 9.87884C7.93412 9.43856 8.01175 9.00501 8.10235 8.5806C8.13647 8.4203 8.17661 8.26505 8.2141 8.1074C8.26385 7.89855 8.3208 7.69596 8.37632 7.49216C8.38161 7.49456 8.38713 7.49601 8.39266 7.49817C8.71542 7.63155 9.04178 7.74907 9.37055 7.85649C9.44433 7.88053 9.51835 7.9036 9.59237 7.92643C9.92378 8.02833 10.2571 8.12109 10.5936 8.19656C10.6198 8.20232 10.6464 8.20641 10.6726 8.21194C10.9911 8.28139 11.3121 8.33619 11.6347 8.38185C11.7087 8.39242 11.7825 8.40372 11.8567 8.41285C12.1925 8.45467 12.5301 8.48447 12.8697 8.50033C12.8925 8.50129 12.9146 8.50513 12.9375 8.5061V12.9375H7.61329C7.61953 12.6678 7.62674 12.3989 7.64164 12.1314C7.6503 11.9718 7.65414 11.8111 7.66592 11.6524ZM15.1434 8.41285C15.2177 8.40372 15.2915 8.39242 15.3655 8.38185C15.6875 8.33643 16.0084 8.28163 16.3263 8.21242C16.353 8.20641 16.3801 8.20256 16.4068 8.19656C16.7418 8.12133 17.0735 8.02905 17.4032 7.92787C17.4806 7.90408 17.5577 7.88005 17.6346 7.85481C17.9593 7.74883 18.2818 7.63275 18.6007 7.50129C18.6082 7.49793 18.6161 7.49577 18.6238 7.49264C18.6789 7.695 18.7353 7.89591 18.7846 8.10307C18.8226 8.26265 18.8634 8.41982 18.898 8.58204C18.9882 9.00525 19.0655 9.43784 19.1321 9.87667C19.1429 9.94925 19.1585 10.0192 19.1686 10.092C19.2412 10.6039 19.2946 11.1259 19.334 11.6524C19.3458 11.8111 19.3496 11.9721 19.3585 12.1317C19.3732 12.3991 19.3806 12.6681 19.3866 12.9375H14.0624V8.5061C14.0853 8.50513 14.1076 8.50129 14.1302 8.50033C14.47 8.48447 14.8077 8.45467 15.1434 8.41285ZM19.334 15.3479C19.2946 15.8742 19.2412 16.3958 19.1689 16.9074C19.1583 16.9817 19.1427 17.0528 19.1314 17.1266C19.0653 17.5642 18.9879 17.9954 18.898 18.4174C18.8634 18.5801 18.8226 18.7377 18.7844 18.8978C18.7351 19.1045 18.6789 19.3049 18.6238 19.5068C18.6161 19.5037 18.6082 19.5015 18.6007 19.4984C18.2818 19.3667 17.9593 19.2508 17.6346 19.1446C17.5577 19.1194 17.4803 19.0953 17.4032 19.0715C17.0735 18.9704 16.7418 18.8781 16.4068 18.8031C16.3801 18.7971 16.353 18.793 16.3261 18.787C16.0081 18.718 15.6878 18.663 15.3655 18.6176C15.2915 18.607 15.2177 18.5957 15.1434 18.5866C14.8074 18.5448 14.4695 18.5149 14.1297 18.4991C14.1071 18.4981 14.085 18.4943 14.0624 18.4933V14.0624H19.3866C19.3806 14.3318 19.3732 14.6008 19.3585 14.868C19.3496 15.0278 19.3458 15.1891 19.334 15.3479ZM22.5291 21.9545C22.4402 21.8747 22.3457 21.8012 22.2547 21.7238C22.1732 21.6546 22.0922 21.5846 22.0088 21.5171C21.7774 21.3299 21.5397 21.1499 21.295 20.9776C21.2614 20.954 21.2299 20.9283 21.1963 20.905C20.9153 20.7113 20.6245 20.5296 20.3275 20.3558C20.2467 20.3087 20.1636 20.2652 20.0819 20.2196C19.9459 20.1439 19.8125 20.0646 19.6733 19.993C19.6839 19.9552 19.6911 19.9148 19.7017 19.8771C19.8108 19.4815 19.9103 19.0778 19.9985 18.6652C20.0136 18.5943 20.0268 18.5226 20.0413 18.4515C20.1297 18.0172 20.2095 17.5772 20.2741 17.1285C20.2746 17.1251 20.2753 17.122 20.2758 17.1187C20.3407 16.6668 20.3897 16.2076 20.4301 15.745C20.4368 15.6688 20.4443 15.5935 20.4501 15.5171C20.4849 15.0725 20.5077 14.6243 20.5195 14.1737C20.5205 14.1365 20.5243 14.0999 20.5253 14.0624H25.8624C25.731 17.0218 24.5625 19.7887 22.5291 21.9545ZM20.5253 12.9375C20.5243 12.9002 20.5205 12.8637 20.5195 12.8264C20.5077 12.3753 20.4849 11.9269 20.4501 11.4821C20.4443 11.4063 20.4368 11.3318 20.4301 11.2566C20.3897 10.7928 20.3405 10.3323 20.2756 9.87932C20.2753 9.87908 20.2753 9.8786 20.2753 9.87836C20.21 9.42414 20.129 8.97906 20.0396 8.53974C20.0261 8.47317 20.0136 8.40636 19.9994 8.34027C19.91 7.92114 19.8091 7.51115 19.6978 7.1098C19.6887 7.07616 19.6822 7.04011 19.6726 7.00646C19.8086 6.93653 19.9386 6.85914 20.0715 6.78536C20.1578 6.7373 20.2455 6.69139 20.3304 6.64189C20.6267 6.46861 20.9165 6.28741 21.1965 6.09443C21.2285 6.07232 21.2583 6.04804 21.2898 6.02593C21.5373 5.85218 21.7774 5.67001 22.011 5.48087C22.0924 5.41502 22.1715 5.34677 22.2513 5.279C22.3433 5.20065 22.4392 5.12615 22.5291 5.0454C24.5625 7.21146 25.731 9.97785 25.8624 12.9375H20.5253ZM21.7134 4.25137C21.6409 4.31553 21.5714 4.38282 21.4974 4.44531C21.4337 4.49914 21.3705 4.55297 21.3056 4.60537C21.0694 4.79667 20.8276 4.9822 20.576 5.15643C20.5625 5.16581 20.5481 5.17422 20.5344 5.18359C20.295 5.34797 20.047 5.50226 19.7944 5.65102C19.718 5.69596 19.6406 5.73946 19.563 5.78296C19.4856 5.82646 19.4046 5.86491 19.3263 5.90673C19.3198 5.88774 19.3124 5.8702 19.3059 5.85146C19.2717 5.75533 19.2357 5.66328 19.2006 5.56931C19.1494 5.43209 19.0982 5.29438 19.0446 5.16148C19.0052 5.06367 18.9636 4.96946 18.923 4.87381C18.8704 4.75076 18.8178 4.62748 18.7632 4.50851C18.7195 4.41335 18.6743 4.32154 18.6293 4.22902C18.5743 4.11582 18.519 4.00311 18.4621 3.894C18.4152 3.80412 18.3671 3.71712 18.3191 3.62988C18.2609 3.52462 18.2025 3.42056 18.1427 3.31962C18.0929 3.23575 18.0425 3.15428 17.9915 3.07329C17.9305 2.97596 17.869 2.88031 17.8062 2.7873C17.7538 2.70967 17.701 2.63397 17.6476 2.55947C17.5837 2.47007 17.519 2.38331 17.4537 2.29848C17.3989 2.2271 17.3434 2.15693 17.2874 2.08867C17.2215 2.00816 17.1545 1.93078 17.0872 1.85484C17.0293 1.78947 16.9713 1.72458 16.9122 1.66233C16.8872 1.6359 16.8629 1.60634 16.8377 1.58038C18.631 2.08146 20.2941 2.98773 21.7134 4.25137ZM10.0884 1.66185C10.0281 1.7253 9.96872 1.79163 9.90936 1.85868C9.84471 1.93198 9.7803 2.00624 9.71686 2.08339C9.6575 2.15596 9.59862 2.23046 9.54022 2.30665C9.47918 2.38596 9.41885 2.46719 9.35901 2.55034C9.30133 2.63085 9.24414 2.7128 9.18766 2.79667C9.12974 2.88295 9.07254 2.97163 9.01583 3.06175C8.96079 3.14923 8.90624 3.23743 8.85241 3.32827C8.79665 3.42248 8.74234 3.51957 8.68802 3.61739C8.63635 3.71063 8.58492 3.80388 8.53469 3.90025C8.48062 4.00407 8.42823 4.11126 8.37584 4.21892C8.3285 4.31577 8.28115 4.41214 8.23525 4.51212C8.18214 4.62796 8.13095 4.74764 8.07976 4.86756C8.03794 4.96537 7.9954 5.06223 7.95479 5.16268C7.90168 5.29462 7.85097 5.43113 7.80002 5.56739C7.76469 5.66208 7.7284 5.75484 7.69403 5.8517C7.68755 5.8702 7.68034 5.88774 7.67361 5.90649C7.59286 5.86323 7.50946 5.82358 7.42968 5.77888C7.35686 5.73802 7.28404 5.69693 7.21218 5.65463C6.95335 5.5025 6.69933 5.34437 6.45419 5.1759C6.44506 5.16941 6.43545 5.16388 6.42632 5.15763C6.17397 4.98292 5.93172 4.79691 5.69476 4.60513C5.63012 4.55273 5.56667 4.4989 5.50322 4.44531C5.42896 4.38282 5.35951 4.31553 5.28717 4.25137C6.70605 2.98797 8.36887 2.08218 10.1624 1.58038C10.1372 1.6061 10.1134 1.63542 10.0884 1.66185ZM4.4715 5.0454C4.55994 5.12495 4.65415 5.19825 4.74475 5.27515C4.82743 5.34533 4.90914 5.41599 4.99349 5.484C5.22084 5.66785 5.45444 5.84473 5.69476 6.01392C5.73249 6.04059 5.7683 6.06967 5.80651 6.09611C6.08553 6.28861 6.37489 6.46933 6.67025 6.64213C6.75412 6.69091 6.8404 6.73634 6.92547 6.78368C7.05933 6.85818 7.19031 6.93605 7.3273 7.00646C7.31768 7.04035 7.3112 7.0764 7.30182 7.11028C7.19079 7.51163 7.08986 7.92114 7.00045 8.34003C6.98627 8.4066 6.97378 8.47389 6.96008 8.5407C6.87116 8.9781 6.79065 9.4215 6.72552 9.87355C6.72504 9.87595 6.72456 9.87836 6.72432 9.88076C6.65943 10.3323 6.6104 10.7914 6.57003 11.2537C6.5633 11.3306 6.55585 11.4068 6.54984 11.4837C6.515 11.9276 6.49216 12.3746 6.48063 12.8243C6.47967 12.8622 6.47558 12.8995 6.47486 12.9375H1.1377C1.26892 9.97785 2.43739 7.21146 4.4715 5.0454ZM6.47486 14.0624C6.47558 14.1004 6.47967 14.1377 6.48063 14.1756C6.49216 14.6253 6.515 15.0725 6.54984 15.5162C6.55585 15.5933 6.5633 15.6693 6.57003 15.7462C6.6104 16.2085 6.65943 16.6678 6.72432 17.1194C6.72456 17.1215 6.72504 17.1237 6.72552 17.1261C6.79041 17.5784 6.87116 18.0218 6.96032 18.4594C6.97378 18.526 6.98627 18.5933 7.00045 18.6596C7.08986 19.0785 7.19079 19.4885 7.30206 19.8901C7.31144 19.9235 7.31792 19.9595 7.3273 19.993C7.19031 20.0634 7.05933 20.1412 6.92547 20.2157C6.8404 20.2631 6.75388 20.3085 6.67001 20.3575C6.3744 20.5303 6.08505 20.711 5.80579 20.9038C5.76782 20.93 5.73249 20.9588 5.695 20.9853C5.45468 21.1547 5.22132 21.3313 4.99397 21.5152C4.90866 21.5842 4.82574 21.6558 4.74235 21.7269C4.65247 21.8033 4.55898 21.8759 4.4715 21.9545C2.43739 19.788 1.26892 17.0218 1.1377 14.0624H6.47486Z" fill="#C5C5C5"/>
</svg>
