<svg width="22" height="22" viewBox="0 0 22 22" fill="none" xmlns="http://www.w3.org/2000/svg">
<g opacity="0.5">
<path d="M13.9998 4.06934H8.0017C5.83392 4.06934 4.07031 5.83295 4.07031 8.00068V13.9988C4.07031 16.1666 5.83392 17.9302 8.0017 17.9302H13.9998C16.1676 17.9302 17.9312 16.1665 17.9312 13.9988V8.00072C17.9312 5.83295 16.1676 4.06934 13.9998 4.06934ZM11.0007 15.0133C8.70617 15.0133 6.83935 13.1465 6.83935 10.8519C6.83935 8.55725 8.70613 6.69052 11.0007 6.69052C13.2954 6.69052 15.1621 8.55729 15.1621 10.8519C15.1621 13.1464 13.2953 15.0133 11.0007 15.0133ZM16.0933 6.76795C16.0933 7.1239 15.8047 7.41248 15.4487 7.41248C15.0928 7.41248 14.8042 7.1239 14.8042 6.76795V6.75604C14.8042 6.40009 15.0928 6.11151 15.4487 6.11151C15.8047 6.11151 16.0933 6.40009 16.0933 6.75604V6.76795Z" fill="#FFCA41"/>
<path d="M10.9993 13.7242C12.5856 13.7242 13.8716 12.4382 13.8716 10.8518C13.8716 9.26548 12.5856 7.97949 10.9993 7.97949C9.41294 7.97949 8.12695 9.26548 8.12695 10.8518C8.12695 12.4382 9.41294 13.7242 10.9993 13.7242Z" fill="#FFCA41"/>
<path d="M21.3555 0H0.644531C0.288578 0 0 0.288578 0 0.644531V21.3555C0 21.7114 0.288578 22 0.644531 22H21.3555C21.7114 22 22 21.7114 22 21.3555V0.644531C22 0.288578 21.7114 0 21.3555 0ZM19.2195 13.999C19.2195 16.8776 16.8776 19.2194 13.999 19.2194H8.00095C5.12239 19.2194 2.78051 16.8776 2.78051 13.999V8.00095C2.78051 5.12239 5.12239 2.78055 8.00095 2.78055H13.999C16.8776 2.78055 19.2195 5.12239 19.2195 8.00095V13.999Z" fill="#FFCA41"/>
</g>
</svg>
