<svg width="30" height="26" viewBox="0 0 30 26" fill="none" xmlns="http://www.w3.org/2000/svg">
<path d="M16.9472 0.193848L11.1379 11.5928L9.19096 7.77242L0 25.8067H30L16.9472 0.193848ZM16.9474 4.06549L19.3528 8.78568L18.7307 9.20656L16.925 7.98488L15.1193 9.20656L14.5303 8.80807L16.9474 4.06549ZM9.19096 11.644L11.4216 16.0211L10.7728 16.46L9.19096 15.3898L7.6091 16.46L6.96029 16.021L9.19096 11.644ZM2.86904 24.0488L6.15592 17.5993L7.6091 18.5824L9.19096 17.5123L10.7728 18.5824L12.2259 17.5994L15.5126 24.0488H2.86904ZM12.1244 13.5286L13.7258 10.3864L15.1192 11.3291L16.9249 10.1074L18.7306 11.3291L20.157 10.3641L27.131 24.0488H17.4857V24.0488L12.1244 13.5286Z" fill="#C5C5C5"/>
</svg>
