<svg width="16" height="14" viewBox="0 0 16 14" fill="none" xmlns="http://www.w3.org/2000/svg">
<path d="M0.899383 5.74503L0.874407 5.75049H11.5809L8.21515 2.37735C8.05034 2.21267 7.95993 1.98958 7.95993 1.75544C7.95993 1.52129 8.05034 1.29976 8.21515 1.13469L8.73886 0.61072C8.90354 0.446037 9.12299 0.35498 9.35701 0.35498C9.59115 0.35498 9.81073 0.445387 9.97541 0.61007L15.7449 6.37905C15.9102 6.54438 16.0006 6.76461 16 6.99888C16.0006 7.23446 15.9102 7.45482 15.7449 7.61989L9.97541 13.3894C9.81073 13.5539 9.59128 13.6445 9.35701 13.6445C9.12299 13.6445 8.90354 13.5538 8.73886 13.3894L8.21515 12.8654C8.05034 12.701 7.95993 12.4814 7.95993 12.2473C7.95993 12.0133 8.05034 11.8053 8.21515 11.6407L11.6189 8.2487H0.887415C0.405203 8.2487 0 7.8331 0 7.35114V6.61007C0 6.12812 0.417171 5.74503 0.899383 5.74503Z" fill="#3983C8"/>
</svg>
