<svg width="12" height="17" viewBox="0 0 12 17" fill="none" xmlns="http://www.w3.org/2000/svg">
<path d="M6.35621 0.522949C3.30158 0.522949 0.816406 3.00812 0.816406 6.06275C0.816406 9.90209 6.36165 16.4604 6.36165 16.4604C6.36165 16.4604 11.896 9.71327 11.896 6.06275C11.896 3.00812 9.41093 0.522949 6.35621 0.522949ZM8.02768 7.6848C7.56679 8.14559 6.96155 8.37604 6.35621 8.37604C5.75096 8.37604 5.14552 8.14559 4.68483 7.6848C3.76315 6.76322 3.76315 5.26364 4.68483 4.34196C5.13113 3.89547 5.72479 3.64955 6.35621 3.64955C6.98762 3.64955 7.58119 3.89556 8.02768 4.34196C8.94936 5.26364 8.94936 6.76322 8.02768 7.6848Z" fill="#FFCA41"/>
</svg>
