<svg width="16" height="12" viewBox="0 0 16 12" fill="none" xmlns="http://www.w3.org/2000/svg">
<path d="M15.6672 0.973625C13.4713 2.83334 9.61808 6.10516 8.48558 7.12531C8.33355 7.263 8.17049 7.333 8.00121 7.333C7.83227 7.333 7.66949 7.26366 7.5178 7.12663C6.38433 6.10547 2.53115 2.83334 0.335177 0.973625C0.198459 0.858062 0.177615 0.654937 0.288302 0.513656C0.544177 0.187187 0.925676 0 1.33455 0H14.6679C15.0767 0 15.4582 0.187188 15.7141 0.513688C15.8248 0.654938 15.8039 0.858062 15.6672 0.973625Z" fill="#FFCA41"/>
<path d="M0.193344 1.98127C0.311501 1.92627 0.4505 1.94546 0.548813 2.02946C2.98406 4.0939 6.09212 6.74008 7.07 7.62124C7.61884 8.11668 8.38056 8.11668 8.93069 7.62058C9.973 6.68146 13.4633 3.71433 15.4512 2.02943C15.5502 1.94543 15.6895 1.9269 15.8067 1.98124C15.9245 2.03596 16 2.1538 16 2.28368V10.6665C16 11.4019 15.402 11.9998 14.6667 11.9998H1.33331C0.597968 11.9998 0 11.4019 0 10.6665V2.28368C0 2.1538 0.075532 2.03565 0.193344 1.98127Z" fill="#FFCA41"/>
</svg>
