<svg width="34" height="34" viewBox="0 0 34 34" fill="none" xmlns="http://www.w3.org/2000/svg">
<g clip-path="url(#clip0)">
<path d="M0.00722886 23.5928C0.00722886 28.0628 3.63073 31.6863 8.10074 31.6863C12.5708 31.6863 16.1943 28.0628 16.1943 23.5928C16.1943 19.1227 12.5708 15.4993 8.10074 15.4993C7.18208 15.4993 6.30271 15.6594 5.47948 15.9416C7.30087 5.49549 15.4468 -1.24108 7.89555 4.30325C-0.477698 10.4513 -0.00173887 23.3454 0.0076304 23.5817C0.0076304 23.5854 0.00722886 23.5887 0.00722886 23.5928Z" fill="#FFCA41"/>
<path d="M17.8119 23.5928C17.8119 28.0628 21.4354 31.6863 25.9055 31.6863C30.3756 31.6863 33.9991 28.0628 33.9991 23.5928C33.9991 19.1227 30.3755 15.4993 25.9054 15.4993C24.9867 15.4993 24.1074 15.6594 23.2842 15.9416C25.1056 5.49549 33.2515 -1.24108 25.7003 4.30325C17.327 10.4513 17.8029 23.3454 17.8123 23.5817C17.8123 23.5854 17.8119 23.5887 17.8119 23.5928Z" fill="#FFCA41"/>
</g>
<defs>
<clipPath id="clip0">
<rect width="34" height="34" fill="white"/>
</clipPath>
</defs>
</svg>
