<svg width="29" height="29" viewBox="0 0 29 29" fill="none" xmlns="http://www.w3.org/2000/svg">
<path d="M27.6033 13.8957C27.5689 13.5766 27.3787 13.2952 27.0954 13.1441V6.25719H28.0299C28.5657 6.25719 29 5.82289 29 5.28714C28.9995 5.22454 28.9875 5.16252 28.9644 5.1043L27.6084 1.58977C27.5516 1.09998 27.1365 0.730748 26.6434 0.731446H2.35657C1.86354 0.730748 1.44841 1.09998 1.39159 1.58977L0.0355517 5.09922C0.0125066 5.15744 0.000507881 5.21946 0 5.28206C0 5.81781 0.434302 6.25211 0.970053 6.25211H1.92487V13.1593C1.64166 13.3104 1.45146 13.5918 1.41699 13.911L0.0355517 17.4204C0.0125066 17.4786 0.000507881 17.5407 0 17.6033C0.00558669 18.135 0.438238 18.5631 0.970053 18.5631H1.92487V27.7609C1.92487 28.0413 2.15227 28.2688 2.43275 28.2688H26.5673C26.8477 28.2688 27.0751 28.0413 27.0751 27.7609V18.5631H28.0299C28.5657 18.5631 29 18.1288 29 17.5931C28.9995 17.5305 28.9875 17.4685 28.9644 17.4103L27.6033 13.8957ZM1.07163 5.24143L2.36672 1.88434C2.38317 1.84028 2.39345 1.79412 2.3972 1.74721H26.5977C26.6015 1.79412 26.6118 1.84028 26.6282 1.88434L27.9284 5.24143H26.5673H1.07163ZM26.0594 6.25719V13.0476H2.94063V6.25719H26.0594ZM16.6229 27.253H12.372V21.7577H16.6229V27.253ZM17.6438 27.253V21.7577C17.6438 21.1967 17.189 20.742 16.628 20.742H12.372C11.811 20.742 11.3562 21.1967 11.3562 21.7577V27.253H2.94063V18.5631H26.0594L26.0848 27.253H17.6438ZM1.07163 17.5474L2.3718 14.1903C2.38825 14.1462 2.39853 14.1001 2.40228 14.0532H26.5977C26.6015 14.1001 26.6118 14.1462 26.6282 14.1903L27.9284 17.5474H1.07163Z" fill="#F28345"/>
<path d="M8.65882 19.9341H4.59577C4.31529 19.9341 4.08789 20.1615 4.08789 20.442V24.505C4.08789 24.7855 4.31529 25.0129 4.59577 25.0129H8.65882C8.93929 25.0129 9.1667 24.7855 9.1667 24.505V20.442C9.1667 20.1615 8.93929 19.9341 8.65882 19.9341ZM8.15093 23.9971H5.10365V20.9498H8.15093V23.9971Z" fill="#F28345"/>
<path d="M24.403 19.9341H20.3399C20.0594 19.9341 19.832 20.1615 19.832 20.442V24.505C19.832 24.7855 20.0594 25.0129 20.3399 25.0129H24.403C24.6834 25.0129 24.9108 24.7855 24.9108 24.505V20.442C24.9108 20.1615 24.6834 19.9341 24.403 19.9341ZM23.8951 23.9971H20.8478V20.9498H23.8951V23.9971Z" fill="#F28345"/>
<path d="M8.65882 7.11572H4.59577C4.31529 7.11572 4.08789 7.34313 4.08789 7.6236V11.6867C4.08789 11.9671 4.31529 12.1945 4.59577 12.1945H8.65882C8.93929 12.1945 9.1667 11.9671 9.1667 11.6867V7.6236C9.1667 7.34313 8.93929 7.11572 8.65882 7.11572ZM8.15093 11.1788H5.10365V8.13148H8.15093V11.1788Z" fill="#F28345"/>
<path d="M24.403 7.11572H20.3399C20.0594 7.11572 19.832 7.34313 19.832 7.6236V11.6867C19.832 11.9671 20.0594 12.1945 20.3399 12.1945H24.403C24.6834 12.1945 24.9108 11.9671 24.9108 11.6867V7.6236C24.9108 7.34313 24.6834 7.11572 24.403 7.11572ZM23.8951 11.1788H20.8478V8.13148H23.8951V11.1788Z" fill="#F28345"/>
<path d="M16.5319 7.11572H12.4688C12.1883 7.11572 11.9609 7.34313 11.9609 7.6236V11.6867C11.9609 11.9671 12.1883 12.1945 12.4688 12.1945H16.5319C16.8123 12.1945 17.0397 11.9671 17.0397 11.6867V7.6236C17.0397 7.34313 16.8123 7.11572 16.5319 7.11572ZM16.024 11.1788H12.9767V8.13148H16.024V11.1788Z" fill="#F28345"/>
</svg>
