<?xml version="1.0" encoding="UTF-8"?>
<svg id="SVGDoc" width="18" height="19" xmlns="http://www.w3.org/2000/svg" version="1.1" xmlns:xlink="http://www.w3.org/1999/xlink" xmlns:avocode="https://avocode.com/" viewBox="0 0 18 19"><defs><mask id="Mask1734" x="-1" y="-1" width="2" height="2"><rect width="18" height="18" x="0" y="0" fill="#ffffff"></rect><path d="M9.00005,0.0003c4.97067,0 9.00006,3.93803 9.00006,8.79607c0,4.85835 -4.02939,8.79638 -9.00006,8.79638c-4.97055,0 -9.00006,-3.93803 -9.00006,-8.79638c0,-4.85804 4.02951,-8.79607 9.00006,-8.79607z" fill="#000000"></path></mask><filter id="Filter1738" width="38" height="39" x="-10" y="-10" filterUnits="userSpaceOnUse"><feOffset dx="0" dy="1" result="FeOffset1739Out" in="SourceGraphic"></feOffset><feGaussianBlur stdDeviation="0 0" result="FeGaussianBlur1740Out" in="FeOffset1739Out"></feGaussianBlur></filter><clipPath id="ClipPath1744"><path d="M9.00005,0.0003c4.97067,0 9.00006,3.93803 9.00006,8.79607c0,4.85835 -4.02939,8.79638 -9.00006,8.79638c-4.97055,0 -9.00006,-3.93803 -9.00006,-8.79638c0,-4.85804 4.02951,-8.79607 9.00006,-8.79607z" fill="#ffffff"></path></clipPath><linearGradient id="LinearGradient1750" gradientUnits="userSpaceOnUse" x1="8.559646606445312" y1="18.999971389770508" x2="9.440445899963379" y2="3.166707992553711"><stop stop-opacity="0.96" stop-color="#000000" offset="0"></stop><stop stop-opacity="0.96" stop-color="#d0d0d0" offset="0.5"></stop><stop stop-opacity="0.96" stop-color="#9e9e9e" offset="1"></stop></linearGradient><filter id="Filter1769" width="200%" height="200%" x="-50%" y="-50%"><feGaussianBlur stdDeviation="6.5 6.5" result="FeGaussianBlur1770Out" in="SourceGraphic"></feGaussianBlur></filter><mask id="Mask1771"><path d="M11.66867,4.49523c0.12755,0.50616 0.14031,0.54834 0.12839,1.06826c-0.00465,0.20051 -0.12147,1.12725 -0.08976,1.4115c0.02611,0.23444 0.08547,0.25277 0.17917,0.44595c0.16344,0.33622 0.10872,0.79989 0.04613,1.13917c-0.03433,0.18523 -0.10693,0.44931 -0.21696,0.60061c-0.12136,0.16689 -0.36442,0.16811 -0.47183,0.36281c-0.15461,0.28028 -0.06723,0.67396 -0.16487,0.97656c-0.11086,0.34325 -0.39303,0.36739 -0.41437,0.8167c0.1384,0.01926 0.27633,0.03882 0.41437,0.05838c0.13852,0.29006 0.3922,0.87417 0.65112,1.05022c0.21696,0.05807 0.43404,0.11645 0.65088,0.17483c0.76044,0.30718 1.60527,0.67488 2.36726,0.99184c0.6938,0.28854 1.52457,0.39124 1.77538,1.1086c0,0.4869 0.04661,1.63708 0.03386,2.27528c0,0 0.00226,2.02403 -7.55739,2.02403c-7.55954,0 -7.55739,-2.02403 -7.55739,-2.02403c-0.01276,-0.6382 0.03386,-1.78837 0.03386,-2.27528c0.25082,-0.71737 1.08147,-0.82007 1.77538,-1.1086c0.76199,-0.31696 1.60682,-0.68466 2.36714,-0.99184c0.21696,-0.05838 0.43416,-0.11676 0.65088,-0.17483c0.25904,-0.17606 0.51272,-0.76016 0.65124,-1.05022l0.30804,-0.07397c-0.06998,-0.38329 -0.31078,-0.41324 -0.41103,-0.68466c-0.03934,-0.40805 -0.0788,-0.81701 -0.11837,-1.22506c0.00191,0.01895 -0.28324,-0.05135 -0.32067,-0.07427c-0.40185,-0.2485 -0.41008,-1.25684 -0.44882,-1.67589c-0.01764,-0.19164 0.25284,-0.34906 0.17762,-0.70056c-0.44036,-2.05765 0.1905,-3.02076 1.18816,-3.33987c0.69249,-0.27662 1.98531,-0.7895 3.19111,-0.05838l0.29922,0.27325v0l0.48423,0.08253c0.24307,0.13815 0.39804,0.59694 0.39804,0.59694z" fill="#ffffff"></path></mask><filter id="Filter1776" width="200%" height="200%" x="-50%" y="-50%"><feGaussianBlur stdDeviation="0 0" result="FeGaussianBlur1777Out" in="SourceGraphic"></feGaussianBlur></filter><mask id="Mask1778"><path d="M11.66867,4.49523c0.12755,0.50616 0.14031,0.54834 0.12839,1.06826c-0.00465,0.20051 -0.12147,1.12725 -0.08976,1.4115c0.02611,0.23444 0.08547,0.25277 0.17917,0.44595c0.16344,0.33622 0.10872,0.79989 0.04613,1.13917c-0.03433,0.18523 -0.10693,0.44931 -0.21696,0.60061c-0.12136,0.16689 -0.36442,0.16811 -0.47183,0.36281c-0.15461,0.28028 -0.06723,0.67396 -0.16487,0.97656c-0.11086,0.34325 -0.39303,0.36739 -0.41437,0.8167c0.1384,0.01926 0.27633,0.03882 0.41437,0.05838c0.13852,0.29006 0.3922,0.87417 0.65112,1.05022c0.21696,0.05807 0.43404,0.11645 0.65088,0.17483c0.76044,0.30718 1.60527,0.67488 2.36726,0.99184c0.6938,0.28854 1.52457,0.39124 1.77538,1.1086c0,0.4869 0.04661,1.63708 0.03386,2.27528c0,0 0.00226,2.02403 -7.55739,2.02403c-7.55954,0 -7.55739,-2.02403 -7.55739,-2.02403c-0.01276,-0.6382 0.03386,-1.78837 0.03386,-2.27528c0.25082,-0.71737 1.08147,-0.82007 1.77538,-1.1086c0.76199,-0.31696 1.60682,-0.68466 2.36714,-0.99184c0.21696,-0.05838 0.43416,-0.11676 0.65088,-0.17483c0.25904,-0.17606 0.51272,-0.76016 0.65124,-1.05022l0.30804,-0.07397c-0.06998,-0.38329 -0.31078,-0.41324 -0.41103,-0.68466c-0.03934,-0.40805 -0.0788,-0.81701 -0.11837,-1.22506c0.00191,0.01895 -0.28324,-0.05135 -0.32067,-0.07427c-0.40185,-0.2485 -0.41008,-1.25684 -0.44882,-1.67589c-0.01764,-0.19164 0.25284,-0.34906 0.17762,-0.70056c-0.44036,-2.05765 0.1905,-3.02076 1.18816,-3.33987c0.69249,-0.27662 1.98531,-0.7895 3.19111,-0.05838l0.29922,0.27325v0l0.48423,0.08253c0.24307,0.13815 0.39804,0.59694 0.39804,0.59694z" fill="#ffffff"></path></mask><clipPath id="clip-3713"><path d="M9.00005,0.0003c4.97067,0 9.00006,3.93803 9.00006,8.79607c0,4.85835 -4.02939,8.79638 -9.00006,8.79638c-4.97055,0 -9.00006,-3.93803 -9.00006,-8.79638c0,-4.85804 4.02951,-8.79607 9.00006,-8.79607z" ></path></clipPath></defs><desc>Generated with Avocode.</desc><g><g><title>Ellipse 20</title><g filter="url(#Filter1738)"><path d="M9.00005,0.0003c4.97067,0 9.00006,3.93803 9.00006,8.79607c0,4.85835 -4.02939,8.79638 -9.00006,8.79638c-4.97055,0 -9.00006,-3.93803 -9.00006,-8.79638c0,-4.85804 4.02951,-8.79607 9.00006,-8.79607z" fill="none" stroke-opacity="1" stroke-width="0" mask="url(&quot;#Mask1734&quot;)"></path><path d="M9.00005,0.0003c4.97067,0 9.00006,3.93803 9.00006,8.79607c0,4.85835 -4.02939,8.79638 -9.00006,8.79638c-4.97055,0 -9.00006,-3.93803 -9.00006,-8.79638c0,-4.85804 4.02951,-8.79607 9.00006,-8.79607z" fill="#80633b" fill-opacity="1"></path></g><path d="M9.00005,0.0003c4.97067,0 9.00006,3.93803 9.00006,8.79607c0,4.85835 -4.02939,8.79638 -9.00006,8.79638c-4.97055,0 -9.00006,-3.93803 -9.00006,-8.79638c0,-4.85804 4.02951,-8.79607 9.00006,-8.79607z" fill="#1c242a" fill-opacity="1"></path><path d="M9.00005,0.0003c4.97067,0 9.00006,3.93803 9.00006,8.79607c0,4.85835 -4.02939,8.79638 -9.00006,8.79638c-4.97055,0 -9.00006,-3.93803 -9.00006,-8.79638c0,-4.85804 4.02951,-8.79607 9.00006,-8.79607z" fill-opacity="0" fill="#ffffff" stroke-linejoin="round" stroke-linecap="round" stroke-opacity="1" stroke="#000000" stroke-miterlimit="20" stroke-width="4" clip-path="url(&quot;#ClipPath1744&quot;)"></path></g><g clip-path="url(#clip-3713)"><title>Shape 28</title><path d="M-12,32v-42h42v42zM11.66869,4.49523c0,0 -0.15497,-0.45879 -0.39804,-0.59694l-0.48423,-0.08253l-0.29922,-0.27325c-1.2058,-0.73112 -2.49862,-0.21824 -3.19111,0.05838c-0.99766,0.31911 -1.62852,1.28222 -1.18816,3.33987c0.07522,0.3515 -0.19526,0.50892 -0.17762,0.70056c0.03874,0.41905 0.04697,1.42739 0.44882,1.67589c0.03742,0.02291 0.32243,0.09318 0.32067,0.07428c0.03957,0.40805 0.07903,0.817 0.11837,1.22505c0.10025,0.27142 0.34105,0.30137 0.41103,0.68466l-0.30804,0.07397c-0.13852,0.29006 -0.3922,0.87416 -0.65124,1.05022c-0.21672,0.05807 -0.43392,0.11645 -0.65088,0.17483c-0.76032,0.30718 -1.60515,0.67488 -2.36714,0.99184c-0.69391,0.28853 -1.52456,0.39123 -1.77538,1.1086c0,0.48691 -0.04662,1.63708 -0.03386,2.27528c0,0 -0.00215,2.02403 7.55739,2.02403c7.55965,0 7.55739,-2.02403 7.55739,-2.02403c0.01275,-0.6382 -0.03386,-1.78838 -0.03386,-2.27528c-0.25081,-0.71736 -1.08158,-0.82006 -1.77538,-1.1086c-0.76199,-0.31696 -1.60682,-0.68466 -2.36726,-0.99184c-0.21684,-0.05838 -0.43392,-0.11676 -0.65088,-0.17483c-0.25892,-0.17605 -0.5126,-0.76016 -0.65112,-1.05022c-0.13804,-0.01956 -0.27597,-0.03912 -0.41437,-0.05838c0.02134,-0.44931 0.30351,-0.47345 0.41437,-0.8167c0.09764,-0.3026 0.01026,-0.69628 0.16487,-0.97656c0.10741,-0.1947 0.35047,-0.19592 0.47183,-0.36281c0.11003,-0.1513 0.18263,-0.41538 0.21696,-0.60061c0.06259,-0.33928 0.11731,-0.80295 -0.04613,-1.13917c-0.0937,-0.19318 -0.15306,-0.21151 -0.17917,-0.44595c-0.03171,-0.28425 0.08511,-1.21099 0.08976,-1.4115c0.01192,-0.51992 -0.00084,-0.5621 -0.12839,-1.06826z" fill="#ffffff" fill-opacity="0.24" stroke-opacity="0.24" stroke-width="0" stroke="#ffffff" filter="url(#Filter1769)" mask="url(&quot;#Mask1771&quot;)"></path><path d="M11.66867,4.49523c0.12755,0.50616 0.14031,0.54834 0.12839,1.06826c-0.00465,0.20051 -0.12147,1.12725 -0.08976,1.4115c0.02611,0.23444 0.08547,0.25277 0.17917,0.44595c0.16344,0.33622 0.10872,0.79989 0.04613,1.13917c-0.03433,0.18523 -0.10693,0.44931 -0.21696,0.60061c-0.12136,0.16689 -0.36442,0.16811 -0.47183,0.36281c-0.15461,0.28028 -0.06723,0.67396 -0.16487,0.97656c-0.11086,0.34325 -0.39303,0.36739 -0.41437,0.8167c0.1384,0.01926 0.27633,0.03882 0.41437,0.05838c0.13852,0.29006 0.3922,0.87417 0.65112,1.05022c0.21696,0.05807 0.43404,0.11645 0.65088,0.17483c0.76044,0.30718 1.60527,0.67488 2.36726,0.99184c0.6938,0.28854 1.52457,0.39124 1.77538,1.1086c0,0.4869 0.04661,1.63708 0.03386,2.27528c0,0 0.00226,2.02403 -7.55739,2.02403c-7.55954,0 -7.55739,-2.02403 -7.55739,-2.02403c-0.01276,-0.6382 0.03386,-1.78837 0.03386,-2.27528c0.25082,-0.71737 1.08147,-0.82007 1.77538,-1.1086c0.76199,-0.31696 1.60682,-0.68466 2.36714,-0.99184c0.21696,-0.05838 0.43416,-0.11676 0.65088,-0.17483c0.25904,-0.17606 0.51272,-0.76016 0.65124,-1.05022l0.30804,-0.07397c-0.06998,-0.38329 -0.31078,-0.41324 -0.41103,-0.68466c-0.03934,-0.40805 -0.0788,-0.81701 -0.11837,-1.22506c0.00191,0.01895 -0.28324,-0.05135 -0.32067,-0.07427c-0.40185,-0.2485 -0.41008,-1.25684 -0.44882,-1.67589c-0.01764,-0.19164 0.25284,-0.34906 0.17762,-0.70056c-0.44036,-2.05765 0.1905,-3.02076 1.18816,-3.33987c0.69249,-0.27662 1.98531,-0.7895 3.19111,-0.05838l0.29922,0.27325v0l0.48423,0.08253c0.24307,0.13815 0.39804,0.59694 0.39804,0.59694z" fill="#bb9c66" fill-opacity="1"></path><path d="M11.66867,4.49523c0.12755,0.50616 0.14031,0.54834 0.12839,1.06826c-0.00465,0.20051 -0.12147,1.12725 -0.08976,1.4115c0.02611,0.23444 0.08547,0.25277 0.17917,0.44595c0.16344,0.33622 0.10872,0.79989 0.04613,1.13917c-0.03433,0.18523 -0.10693,0.44931 -0.21696,0.60061c-0.12136,0.16689 -0.36442,0.16811 -0.47183,0.36281c-0.15461,0.28028 -0.06723,0.67396 -0.16487,0.97656c-0.11086,0.34325 -0.39303,0.36739 -0.41437,0.8167c0.1384,0.01926 0.27633,0.03882 0.41437,0.05838c0.13852,0.29006 0.3922,0.87417 0.65112,1.05022c0.21696,0.05807 0.43404,0.11645 0.65088,0.17483c0.76044,0.30718 1.60527,0.67488 2.36726,0.99184c0.6938,0.28854 1.52457,0.39124 1.77538,1.1086c0,0.4869 0.04661,1.63708 0.03386,2.27528c0,0 0.00226,2.02403 -7.55739,2.02403c-7.55954,0 -7.55739,-2.02403 -7.55739,-2.02403c-0.01276,-0.6382 0.03386,-1.78837 0.03386,-2.27528c0.25082,-0.71737 1.08147,-0.82007 1.77538,-1.1086c0.76199,-0.31696 1.60682,-0.68466 2.36714,-0.99184c0.21696,-0.05838 0.43416,-0.11676 0.65088,-0.17483c0.25904,-0.17606 0.51272,-0.76016 0.65124,-1.05022l0.30804,-0.07397c-0.06998,-0.38329 -0.31078,-0.41324 -0.41103,-0.68466c-0.03934,-0.40805 -0.0788,-0.81701 -0.11837,-1.22506c0.00191,0.01895 -0.28324,-0.05135 -0.32067,-0.07427c-0.40185,-0.2485 -0.41008,-1.25684 -0.44882,-1.67589c-0.01764,-0.19164 0.25284,-0.34906 0.17762,-0.70056c-0.44036,-2.05765 0.1905,-3.02076 1.18816,-3.33987c0.69249,-0.27662 1.98531,-0.7895 3.19111,-0.05838l0.29922,0.27325v0l0.48423,0.08253c0.24307,0.13815 0.39804,0.59694 0.39804,0.59694z" fill="url(#LinearGradient1750)"></path><path d="M-12,32v-42h42v42zM11.66869,4.49523c0,0 -0.15497,-0.45879 -0.39804,-0.59694l-0.48423,-0.08253l-0.29922,-0.27325c-1.2058,-0.73112 -2.49862,-0.21824 -3.19111,0.05838c-0.99766,0.31911 -1.62852,1.28222 -1.18816,3.33987c0.07522,0.3515 -0.19526,0.50892 -0.17762,0.70056c0.03874,0.41905 0.04697,1.42739 0.44882,1.67589c0.03742,0.02291 0.32243,0.09318 0.32067,0.07428c0.03957,0.40805 0.07903,0.817 0.11837,1.22505c0.10025,0.27142 0.34105,0.30137 0.41103,0.68466l-0.30804,0.07397c-0.13852,0.29006 -0.3922,0.87416 -0.65124,1.05022c-0.21672,0.05807 -0.43392,0.11645 -0.65088,0.17483c-0.76032,0.30718 -1.60515,0.67488 -2.36714,0.99184c-0.69391,0.28853 -1.52456,0.39123 -1.77538,1.1086c0,0.48691 -0.04662,1.63708 -0.03386,2.27528c0,0 -0.00215,2.02403 7.55739,2.02403c7.55965,0 7.55739,-2.02403 7.55739,-2.02403c0.01275,-0.6382 -0.03386,-1.78838 -0.03386,-2.27528c-0.25081,-0.71736 -1.08158,-0.82006 -1.77538,-1.1086c-0.76199,-0.31696 -1.60682,-0.68466 -2.36726,-0.99184c-0.21684,-0.05838 -0.43392,-0.11676 -0.65088,-0.17483c-0.25892,-0.17605 -0.5126,-0.76016 -0.65112,-1.05022c-0.13804,-0.01956 -0.27597,-0.03912 -0.41437,-0.05838c0.02134,-0.44931 0.30351,-0.47345 0.41437,-0.8167c0.09764,-0.3026 0.01026,-0.69628 0.16487,-0.97656c0.10741,-0.1947 0.35047,-0.19592 0.47183,-0.36281c0.11003,-0.1513 0.18263,-0.41538 0.21696,-0.60061c0.06259,-0.33928 0.11731,-0.80295 -0.04613,-1.13917c-0.0937,-0.19318 -0.15306,-0.21151 -0.17917,-0.44595c-0.03171,-0.28425 0.08511,-1.21099 0.08976,-1.4115c0.01192,-0.51992 -0.00084,-0.5621 -0.12839,-1.06826z" fill="#ffffff" fill-opacity="0.24" stroke-opacity="0.24" stroke-width="0" stroke="#ffffff" filter="url(#Filter1769)" mask="url(&quot;#Mask1771&quot;)"></path><path d="M1,20v-18h16v18zM11.66869,5.49523c0,0 -0.15497,-0.45879 -0.39804,-0.59694l-0.48423,-0.08253l-0.29922,-0.27325c-1.2058,-0.73112 -2.49862,-0.21824 -3.19111,0.05838c-0.99766,0.31911 -1.62852,1.28222 -1.18816,3.33987c0.07522,0.3515 -0.19526,0.50892 -0.17762,0.70056c0.03874,0.41905 0.04697,1.42739 0.44882,1.67589c0.03742,0.02291 0.32243,0.09318 0.32067,0.07428c0.03957,0.40805 0.07903,0.817 0.11837,1.22505c0.10025,0.27142 0.34105,0.30137 0.41103,0.68466l-0.30804,0.07397c-0.13852,0.29006 -0.3922,0.87416 -0.65124,1.05022c-0.21672,0.05807 -0.43392,0.11645 -0.65088,0.17483c-0.76032,0.30718 -1.60515,0.67488 -2.36714,0.99184c-0.69391,0.28853 -1.52456,0.39123 -1.77538,1.1086c0,0.48691 -0.04662,1.63708 -0.03386,2.27528c0,0 -0.00215,2.02403 7.55739,2.02403c7.55965,0 7.55739,-2.02403 7.55739,-2.02403c0.01275,-0.6382 -0.03386,-1.78838 -0.03386,-2.27528c-0.25081,-0.71736 -1.08158,-0.82006 -1.77538,-1.1086c-0.76199,-0.31696 -1.60682,-0.68466 -2.36726,-0.99184c-0.21684,-0.05838 -0.43392,-0.11676 -0.65088,-0.17483c-0.25892,-0.17605 -0.5126,-0.76016 -0.65112,-1.05022c-0.13804,-0.01956 -0.27597,-0.03912 -0.41437,-0.05838c0.02134,-0.44931 0.30351,-0.47345 0.41437,-0.8167c0.09764,-0.3026 0.01026,-0.69628 0.16487,-0.97656c0.10741,-0.1947 0.35047,-0.19592 0.47183,-0.36281c0.11003,-0.1513 0.18263,-0.41538 0.21696,-0.60061c0.06259,-0.33928 0.11731,-0.80295 -0.04613,-1.13917c-0.0937,-0.19318 -0.15306,-0.21151 -0.17917,-0.44595c-0.03171,-0.28425 0.08511,-1.21099 0.08976,-1.4115c0.01192,-0.51992 -0.00084,-0.5621 -0.12839,-1.06826z" fill="#fff1d8" fill-opacity="0.44" stroke-opacity="0.44" stroke-width="0" stroke="#fff1d8" filter="url(#Filter1776)" mask="url(&quot;#Mask1778&quot;)"></path></g></g></svg>